<svg width="452" height="29" viewBox="0 0 452 29" fill="none" xmlns="http://www.w3.org/2000/svg">
<path d="M221.401 22.048C220.297 22.48 219.137 22.696 217.921 22.696C216.721 22.696 215.657 22.488 214.729 22.072C213.801 21.656 212.985 21.112 212.281 20.44C211.593 19.752 211.049 18.968 210.649 18.088C210.265 17.208 210.073 16.368 210.073 15.568C210.073 14.752 210.137 13.968 210.265 13.216C210.393 12.448 210.585 11.696 210.841 10.96C211.769 8.336 213.305 6.608 215.449 5.776C216.281 5.456 217.193 5.296 218.185 5.296C221.289 5.296 223.585 6.176 225.073 7.936C226.257 9.344 226.849 11.128 226.849 13.288C226.833 16.184 225.977 18.48 224.281 20.176C223.481 20.976 222.521 21.6 221.401 22.048ZM214.945 13.456C214.897 14.064 214.873 14.624 214.873 15.136C214.873 15.632 214.937 16.16 215.065 16.72C215.193 17.296 215.353 17.872 215.545 18.448C215.945 19.584 216.497 20.664 217.201 21.688C217.249 21.832 217.473 21.904 217.873 21.904C218.129 21.904 218.457 21.872 218.857 21.808C220.041 21.632 220.761 21.104 221.017 20.224C221.193 19.552 221.361 18.984 221.521 18.52C221.697 18.04 221.849 17.592 221.977 17.176C222.265 16.248 222.409 15.448 222.409 14.776C222.409 14.088 222.385 13.48 222.337 12.952C222.289 12.424 222.209 11.872 222.097 11.296C221.985 10.704 221.833 10.112 221.641 9.52C221.481 8.944 221.257 8.416 220.969 7.936C220.345 6.88 219.585 6.344 218.689 6.328C217.761 6.344 216.977 6.896 216.337 7.984C215.601 9.232 215.137 11.056 214.945 13.456ZM242.576 20.392L242.6 19.936C242.6 19.856 242.6 19.776 242.6 19.696C242.6 19.088 242.544 18.632 242.432 18.328C242.112 17.416 241.488 16.784 240.56 16.432C240.336 16.336 240.112 16.296 239.888 16.312C239.456 16.408 238.984 16.528 238.472 16.672L237.728 16.888L237.584 17.032L237.872 21.496H238.616C238.904 21.496 239.176 21.512 239.432 21.544C239.688 21.56 239.816 21.68 239.816 21.904C239.816 22.352 239.288 22.576 238.232 22.576C237.192 22.576 236.128 22.512 235.04 22.384C233.968 22.272 232.88 22.216 231.776 22.216L231.032 22.24C230.824 22.144 230.72 21.992 230.72 21.784C230.72 21.56 230.808 21.416 230.984 21.352C231.16 21.272 231.368 21.224 231.608 21.208C231.864 21.192 232.112 21.184 232.352 21.184C232.608 21.184 232.808 21.144 232.952 21.064L232.976 20.152C232.976 15.912 232.776 11.896 232.376 8.104C232.36 8.072 232.336 8 232.304 7.888C232.272 7.776 232.248 7.704 232.232 7.672L232.16 7.648C231.84 7.648 231.296 8.144 230.528 9.136C230.336 9.392 230.144 9.664 229.952 9.952C229.696 10.336 229.568 10.864 229.568 11.536C229.552 11.776 229.544 11.984 229.544 12.16C229.544 12.544 229.552 12.84 229.568 13.048C229.6 13.384 229.664 13.68 229.76 13.936C229.92 14.416 230.304 14.928 230.912 15.472C230.912 15.68 230.704 15.856 230.288 16C229.68 16 229.2 15.48 228.848 14.44C228.592 13.704 228.464 12.904 228.464 12.04C228.464 11.112 228.688 10.176 229.136 9.232C229.568 8.288 230.248 7.512 231.176 6.904C232.2 6.392 233.448 6.136 234.92 6.136C237.208 6.136 239.04 6.48 240.416 7.168C241.248 7.584 241.944 8.184 242.504 8.968C243.08 9.736 243.368 10.768 243.368 12.064C243.368 12.112 243.36 12.192 243.344 12.304L243.296 12.592C243.248 12.912 243.224 13.056 243.224 13.024L241.592 15.544V15.712C243.096 16.256 243.848 17.856 243.848 20.512L243.824 21.352C244.128 21.656 244.304 21.808 244.352 21.808C244.464 21.712 244.568 21.6 244.664 21.472C244.776 21.344 244.896 21.232 245.024 21.136C245.424 20.864 245.656 20.728 245.72 20.728C245.896 20.728 246.016 20.736 246.08 20.752C246.16 20.752 246.2 20.84 246.2 21.016C246.2 21.176 246.16 21.376 246.08 21.616C246 21.856 245.888 22.08 245.744 22.288C245.408 22.768 245.008 23.008 244.544 23.008C244.272 23.008 244.048 22.96 243.872 22.864C243.712 22.768 243.488 22.608 243.2 22.384C242.928 22.16 242.752 21.88 242.672 21.544C242.608 21.192 242.576 20.808 242.576 20.392ZM236.96 7.216L236.984 7.672C237.08 8.92 237.152 10.184 237.2 11.464C237.248 12.744 237.376 14.008 237.584 15.256C237.632 15.368 237.728 15.424 237.872 15.424C240.208 15.424 241.696 14.376 242.336 12.28C242.336 10.904 241.936 9.8 241.136 8.968C240.848 8.68 240.56 8.472 240.272 8.344C239.984 8.216 239.696 8.096 239.408 7.984C239.12 7.856 238.832 7.736 238.544 7.624C237.872 7.352 237.504 7.216 237.44 7.216H236.96Z" fill="#B63030"/>
<path d="M264.008 13.5C263.18 13.4956 262.504 14.1636 262.5 14.992C262.496 15.8204 263.164 16.4956 263.992 16.5L264.008 13.5ZM452 16L437.046 7.26008L436.954 24.5803L452 16ZM263.992 16.5L438.492 17.4282L438.508 14.4282L264.008 13.5L263.992 16.5Z" fill="#9A2D2D"/>
<path d="M0 14L14.9537 22.7399L15.0459 5.41965L0 14ZM187.992 16.5C188.82 16.5044 189.496 15.8364 189.5 15.008C189.504 14.1796 188.836 13.5044 188.008 13.5L187.992 16.5ZM13.4918 15.5718L187.992 16.5L188.008 13.5L13.5078 12.5718L13.4918 15.5718Z" fill="#9A2D2D"/>
</svg>
