<svg width="38" height="44" viewBox="0 0 38 44" fill="none" xmlns="http://www.w3.org/2000/svg">
<g clip-path="url(#clip0_8_94)">
<path d="M36.204 14.8837C33.2061 16.6415 31.3544 19.655 31.3544 23.0033C31.3544 26.7702 33.7351 30.2022 37.3503 31.6253C36.6449 33.8017 35.5868 35.8107 34.2642 37.6522C32.3243 40.2472 30.2963 42.9258 27.2984 42.9258C24.3005 42.9258 23.4187 41.2517 19.8918 41.2517C16.453 41.2517 15.2185 43.0095 12.3969 43.0095C9.57537 43.0095 7.63553 40.582 5.43117 37.5685C2.52142 33.3831 0.846109 28.5281 0.757935 23.4219C0.757935 15.1348 6.40109 10.6983 12.0442 10.6983C15.0422 10.6983 17.5111 12.5398 19.3627 12.5398C21.1262 12.5398 23.9478 10.6146 27.2984 10.6146C30.8254 10.5309 34.176 12.1213 36.204 14.8837ZM25.7113 7.09883C27.2102 5.42467 28.0038 3.33197 28.092 1.15556C28.092 0.904437 28.092 0.569605 28.0038 0.318481C25.4467 0.569605 23.066 1.74152 21.3907 3.58309C19.8918 5.17354 19.01 7.18253 18.9218 9.35894C18.9218 9.61007 18.9218 9.86119 19.01 10.1123C19.1864 10.1123 19.4509 10.196 19.6272 10.196C22.0079 10.0286 24.2123 8.85669 25.7113 7.09883Z" fill="white"/>
</g>
<defs>
<clipPath id="clip0_8_94">
<rect width="36.5923" height="42.6911" fill="white" transform="translate(0.757935 0.318481)"/>
</clipPath>
</defs>
</svg>
