<svg width="43" height="44" viewBox="0 0 43 44" fill="none" xmlns="http://www.w3.org/2000/svg">
<g clip-path="url(#clip0_8_98)">
<path d="M42.7898 21.664C42.7898 9.87517 33.2331 0.318457 21.4443 0.318457C9.65547 0.318457 0.0987549 9.87517 0.0987549 21.664C0.0987549 32.3182 7.90451 41.1489 18.109 42.7502V27.8342H12.6893V21.664H18.109V16.9613C18.109 11.6116 21.2958 8.65656 26.1716 8.65656C28.5069 8.65656 30.9497 9.07346 30.9497 9.07346V14.3265H28.2581C25.6065 14.3265 24.7795 15.9719 24.7795 17.6599V21.664H30.6996L29.7532 27.8342H24.7795V42.7502C34.9841 41.1489 42.7898 32.3182 42.7898 21.664Z" fill="white"/>
</g>
<defs>
<clipPath id="clip0_8_98">
<rect width="42.6911" height="42.6911" fill="white" transform="translate(0.0987549 0.318466)"/>
</clipPath>
</defs>
</svg>
