<svg width="731" height="208" viewBox="0 0 731 208" fill="none" xmlns="http://www.w3.org/2000/svg">
<path d="M45.3742 141.556C28.9768 143.723 19.7172 144.916 17.5952 145.136C15.4732 145.356 13.8085 145.461 12.6012 145.452C11.3938 145.443 10.7283 144.842 10.6047 143.648C10.3713 141.393 12.3102 140.053 16.4216 139.627C17.6815 139.497 18.3766 139.09 18.5069 138.406C18.6966 137.649 18.7262 136.641 18.5957 135.381L16.8385 125.208L16.2817 114.006L14.9887 114.14C13.5298 114.291 12.4116 114.172 11.6341 113.783C10.9161 113.321 10.5227 112.759 10.454 112.096C10.2824 110.438 12.0533 109.417 15.7667 109.032C16.0775 106.855 16.0578 104.076 15.7076 100.694L14.9969 93.8307L14.1352 86.4803L13.8571 83.7947L12.9033 81.3801L2.32525 81.1685C1.64839 81.1045 1.21619 80.8142 1.02863 80.2974C0.907384 79.7738 0.822727 79.2799 0.77466 78.8157C0.719726 78.2852 0.704815 77.8176 0.729927 77.4128C0.814484 76.9349 1.17459 76.529 1.81024 76.1951C5.19216 75.8449 9.06916 75.745 13.4412 75.8955C21.6481 76.1851 26.6798 76.2337 28.5366 76.0414L33.4105 75.5367L35.3896 75.2313L54.7032 69.5115L63.9537 68.5536L64.6741 69.6854L65.9098 78.7061C66.0815 80.3639 66.0073 81.9131 65.6873 83.3538C65.3605 84.7281 64.4013 85.4976 62.8098 85.6624L61.9146 85.7551C61.7157 85.7757 61.5465 85.7597 61.407 85.7072L51.027 76.7286L49.9328 76.8419C45.092 77.3431 41.0482 78.097 37.8012 79.1035C34.5543 80.1099 32.9148 80.7824 32.8829 81.1208C32.8693 82.9318 32.9015 84.537 32.9794 85.9364L33.1925 89.9358C33.2498 91.1363 33.3471 92.3996 33.4844 93.7259L34.6071 104.568C35.6248 105.334 36.863 105.641 38.3219 105.49L38.5208 105.47C40.046 105.312 41.1264 105.066 41.7621 104.732C43.5113 104.149 44.6408 103.73 45.1507 103.476C45.7201 103.149 46.0367 102.647 46.1007 101.97L46.4812 99.8196C46.5451 99.1427 46.6491 98.5288 46.7931 97.9777C46.9966 97.3534 47.463 97.0035 48.1924 96.9279C49.8503 96.7563 50.8302 98.1293 51.1324 101.047C51.3658 103.302 51.334 105.584 51.037 107.893C50.8063 110.196 50.4841 111.938 50.0703 113.121C49.6565 114.303 49.0518 114.935 48.256 115.018L47.2202 114.723C46.5959 114.519 46.2734 114.318 46.2528 114.119L45.6657 108.449L35.8184 109.469L35.256 110.834L35.9049 117.101C36.777 125.523 37.7095 132.262 38.7024 137.32C38.8099 137.711 39.1953 137.872 39.8584 137.804L47.0578 136.455C48.9145 136.263 49.9184 136.896 50.0695 138.355C50.2549 140.145 48.6898 141.212 45.3742 141.556ZM94.5736 103.284C94.0311 98.0458 91.4389 95.6668 86.7971 96.1475C84.8077 96.3535 83.4941 97.2603 82.8563 98.8678C82.5477 99.7711 82.4152 100.757 82.4587 101.825C82.5617 102.819 82.7596 103.435 83.0523 103.673C83.4113 103.904 83.6252 104.351 83.6939 105.014C83.8175 106.208 83.2036 107.076 81.8522 107.618C81.0176 107.972 79.7714 108.235 78.1136 108.407C76.92 108.531 75.4589 108.984 73.7303 109.766C72.0017 110.548 71.0047 110.953 70.7395 110.98C70.1427 111.042 69.6407 110.725 69.2336 110.03C68.8928 109.328 68.6881 108.646 68.6194 107.983C68.4958 106.789 69.0662 104.853 70.3304 102.176C71.6541 99.4247 72.8349 97.5598 73.873 96.581C75.7707 94.8429 77.5336 93.4205 79.1616 92.3136C80.7827 91.1403 82.5216 90.4576 84.3783 90.2653C93.9273 89.2765 100.359 91.1909 103.673 96.0085C105.566 98.7615 106.726 102.194 107.152 106.305C107.337 108.095 107.294 109.943 107.022 111.848C106.75 113.753 106.703 115.567 106.882 117.291C107.17 120.076 108.002 122.604 109.376 124.875C111.048 126.779 112.431 127.842 113.527 128.064C113.925 128.023 114.276 127.852 114.58 127.553C114.95 127.246 115.301 127.076 115.633 127.042C117.025 126.898 117.794 127.522 117.938 128.914C118.075 130.24 117.598 131.463 116.508 132.581C114.327 134.818 112.142 136.049 109.954 136.276C107.765 136.502 106.193 136.531 105.237 136.362C104.281 136.193 103.415 135.914 102.637 135.525C101.86 135.137 101.178 134.705 100.593 134.229L98.8469 132.902L97.2004 131.564C96.7544 131.141 96.4983 130.933 96.432 130.94C92.4859 136.845 87.0646 140.154 80.1681 140.868C76.2557 141.273 72.8988 140.247 70.0974 137.789C67.3623 135.324 65.8712 132.898 65.624 130.511C65.157 126.002 67.034 122.121 71.2548 118.869C75.6082 115.603 82.4244 112.82 91.7034 110.519C92.6249 110.356 93.3303 110.048 93.8196 109.596C94.6793 108.836 94.9306 106.733 94.5736 103.284ZM82.3852 120.532C81.7794 121.801 81.5314 122.966 81.6413 124.027C81.9022 126.547 82.3746 128.844 83.0585 130.917C83.7425 132.991 84.6549 134.036 85.796 134.052C87.4538 133.881 88.8314 133.269 89.9289 132.217C91.8792 130.339 92.8349 128.565 92.7958 126.893L92.7019 114.336C87.5296 114.872 84.0907 116.937 82.3852 120.532ZM123.364 133.681C121.48 133.608 120.431 132.543 120.218 130.488C120.255 129.546 120.462 128.954 120.839 128.714C121.216 128.474 121.736 128.32 122.399 128.251L123.205 128.268C125.062 128.076 126.173 127.157 126.539 125.51C126.834 124.474 126.854 122.73 126.6 120.276C126.58 120.077 126.526 119.882 126.439 119.69C126.418 119.491 126.398 119.292 126.377 119.093C126.103 116.44 126.026 113.432 126.146 110.068C126.254 106.572 126.16 103.398 125.864 100.547C125.562 97.6292 125.198 95.0865 124.773 92.9188L120.218 93.5915L119.223 93.6945C118.613 93.6237 117.929 93.4934 117.172 93.3037C116.415 93.114 116.009 92.7539 115.954 92.2234C115.899 91.6929 116.047 91.1749 116.397 90.6696C116.813 90.1573 117.073 89.7617 117.178 89.4827C117.583 89.5078 117.951 89.5032 118.283 89.4689L120.471 89.2423C121.598 89.1255 122.557 88.9928 123.345 88.8441C124.134 88.6954 124.728 88.6004 125.126 88.5592C125.583 88.4449 126.007 88.3339 126.398 88.2264C126.855 88.112 127.747 87.9862 129.073 87.8488C130.996 87.6497 133.507 86.6525 136.605 84.8571C137.415 84.9073 138.105 85.1039 138.677 85.4469C139.308 85.7166 139.763 85.9041 140.042 86.0092L140.05 90.9347C140.196 91.0536 140.402 91.0993 140.667 91.0718C141.198 91.0169 142.137 90.3834 143.486 89.1713C146.459 87.456 148.839 86.1707 150.627 85.3153C152.408 84.3936 153.829 83.8778 154.89 83.7679C155.951 83.6581 156.996 83.7174 158.025 83.946C159.121 84.1677 160.233 84.5551 161.363 85.1084C163.968 86.3132 165.844 87.9285 166.992 89.9544C168.909 93.5762 169.997 96.6471 170.258 99.1669C170.368 100.228 170.38 101.634 170.293 103.386C170.099 106.69 170.051 109.141 170.15 110.74C170.404 113.193 170.751 114.933 171.193 115.96C171.568 116.994 171.929 117.894 172.277 118.663C173.087 120.657 173.697 121.699 174.109 121.791C174.475 122.088 174.93 122.275 175.474 122.353C176.012 122.364 176.552 122.409 177.097 122.487C178.325 122.695 178.987 123.263 179.083 124.191C179.179 125.119 177.663 126.014 174.535 126.874C172.712 127.398 171.072 127.735 169.613 127.886C166.629 128.195 164.246 127.839 162.465 126.817C157.4 123.856 154.318 117.071 153.219 106.461C152.299 97.575 150.115 93.3106 146.666 93.6677C144.876 93.8531 143.341 94.8834 142.06 96.7586C140.839 98.5606 140.242 100.231 140.267 101.77L140.317 121.671C140.557 123.992 141.389 125.548 142.811 126.339C144.226 127.063 146.039 127.412 148.248 127.384C148.719 127.402 148.985 127.71 149.047 128.307C149.177 129.567 148.049 130.32 145.662 130.567C144.8 130.657 143.755 130.597 142.527 130.389C140.071 129.973 137.782 129.875 135.66 130.095C133.604 130.308 129.505 131.503 123.364 133.681ZM190.084 77.9118L188.9 72.304L188.8 72.3143C188.469 72.3486 187.263 72.6746 185.182 73.2922C184.452 73.3677 183.729 73.1746 183.011 72.7127C182.293 72.2509 181.892 71.6221 181.81 70.8264C181.721 69.9643 181.95 69.2703 182.499 68.7443C183.107 68.1451 183.892 67.6283 184.852 67.1937C185.938 66.6791 188.31 65.9643 191.969 65.0493L193.77 64.9633C194.817 64.7208 195.84 64.2462 196.839 63.5396L199.659 61.6391C201.657 60.2257 203.352 59.4469 204.745 59.3027C206.204 59.1517 207.074 59.4637 207.355 60.2389C207.696 60.9408 207.921 61.8223 208.031 62.8833L207.946 63.998C207.669 68.4502 207.607 71.4057 207.758 72.8645C207.909 74.3234 208.026 75.4507 208.108 76.2465L208.554 78.6131C208.637 79.4088 208.712 80.1383 208.781 80.8014C208.916 81.4576 208.997 81.9184 209.025 82.1836C210.55 82.0257 212.028 81.7386 213.459 81.3223C214.891 80.9059 216.402 80.6154 217.994 80.4506C219.652 80.2789 220.549 80.8562 220.686 82.1824C220.776 83.0445 220.645 83.7282 220.296 84.2336C218.439 84.4259 216.201 84.8251 213.583 85.4314C210.965 86.0376 209.527 86.3876 209.268 86.4814C208.772 86.8679 208.427 88.7132 208.233 92.0175C208.039 95.3217 207.964 97.5077 208.007 98.5756C208.11 99.5703 208.147 100.572 208.118 101.58C208.088 102.589 208.029 103.634 207.94 104.715C207.729 107.217 207.772 109.893 208.067 112.745C208.205 114.071 208.829 115.246 209.94 116.271C211.052 117.295 212.304 117.735 213.696 117.591L217.456 117C218.384 116.904 219.227 116.951 219.983 117.141C220.807 117.324 221.27 117.912 221.373 118.907C221.38 118.973 221.353 119.043 221.294 119.116L221.304 119.216C219.484 122.353 214.463 124.348 206.24 125.199C200.869 125.755 196.794 124.267 194.015 120.735C191.937 118.135 190.647 114.415 190.145 109.574C190.063 108.778 189.981 103.458 189.9 93.6143L189.248 89.2583L177.013 90.5252C176.549 90.5733 176.187 90.3092 175.926 89.733C175.599 89.1636 175.418 88.7132 175.384 88.3816C175.281 87.3869 175.673 86.6426 176.56 86.1486C184.927 84.746 189.425 83.8446 190.053 83.4444C190.204 81.0159 190.214 79.1718 190.084 77.9118ZM255.626 86.6071C255.084 81.3685 252.492 78.9895 247.85 79.4701C245.861 79.6761 244.547 80.5829 243.909 82.1905C243.601 83.0938 243.468 84.0793 243.512 85.1472C243.615 86.1419 243.812 86.7581 244.105 86.9959C244.464 87.2268 244.678 87.6738 244.747 88.3369C244.87 89.5306 244.256 90.3984 242.905 90.9405C242.071 91.295 240.824 91.5581 239.167 91.7297C237.973 91.8534 236.512 92.3063 234.783 93.0885C233.055 93.8707 232.058 94.2755 231.792 94.303C231.196 94.3648 230.694 94.0481 230.286 93.353C229.946 92.6511 229.741 91.9685 229.672 91.3054C229.549 90.1118 230.119 88.1761 231.383 85.4983C232.707 82.7473 233.888 80.8824 234.926 79.9036C236.824 78.1656 238.586 76.7431 240.214 75.6362C241.836 74.463 243.574 73.7803 245.431 73.588C254.98 72.5992 261.412 74.5136 264.725 79.3312C266.619 82.0841 267.779 85.5163 268.204 89.6276C268.39 91.4181 268.347 93.2657 268.075 95.1705C267.803 97.0753 267.756 98.8897 267.935 100.614C268.223 103.399 269.054 105.927 270.429 108.197C272.101 110.102 273.484 111.165 274.58 111.387C274.977 111.346 275.328 111.175 275.633 110.876C276.003 110.569 276.354 110.399 276.685 110.364C278.078 110.22 278.846 110.844 278.991 112.237C279.128 113.563 278.651 114.785 277.561 115.904C275.379 118.14 273.195 119.372 271.006 119.598C268.818 119.825 267.246 119.854 266.29 119.685C265.334 119.516 264.468 119.237 263.69 118.848C262.913 118.459 262.231 118.027 261.646 117.552L259.9 116.224L258.253 114.887C257.807 114.464 257.551 114.256 257.485 114.263C253.539 120.167 248.117 123.477 241.221 124.191C237.309 124.596 233.952 123.57 231.15 121.112C228.415 118.647 226.924 116.221 226.677 113.834C226.21 109.325 228.087 105.444 232.308 102.192C236.661 98.9261 243.477 96.1425 252.756 93.8412C253.678 93.6788 254.383 93.3711 254.872 92.9183C255.732 92.1591 255.984 90.0553 255.626 86.6071ZM243.438 103.854C242.832 105.123 242.584 106.288 242.694 107.349C242.955 109.869 243.427 112.166 244.111 114.24C244.795 116.314 245.708 117.359 246.849 117.375C248.507 117.203 249.884 116.591 250.982 115.539C252.932 113.662 253.888 111.887 253.849 110.216L253.755 97.6587C248.582 98.1943 245.144 100.259 243.438 103.854ZM303.099 73.1458C297.595 73.7158 294.929 74.8296 295.1 76.4874C295.313 78.5431 296.132 80.3015 297.557 81.7625C298.981 83.2235 300.698 84.5873 302.706 85.8539C304.706 87.0542 306.87 88.2042 309.195 89.3038C311.587 90.3966 313.787 91.5763 315.795 92.8429C320.529 95.8379 323.091 99.2253 323.483 103.005C323.963 107.647 321.707 111.098 316.713 113.357C313.64 114.748 309.716 115.691 304.942 116.185C300.233 116.672 296.283 116.713 293.091 116.306C289.965 115.893 287.427 115.653 285.476 115.587C283.599 115.58 282.434 115.332 281.981 114.843C281.595 114.347 281.364 113.734 281.288 113.004C281.206 112.209 281.299 111.495 281.569 110.864C281.832 110.167 282.165 109.495 282.567 108.851C283.715 106.989 284.383 105.68 284.573 104.923C284.756 104.1 284.879 103.35 284.943 102.673C285.021 102.129 285.165 101.578 285.375 101.02C285.782 99.771 286.549 99.0884 287.677 98.9717C288.87 98.8481 289.944 99.5077 290.898 100.95C291.918 102.386 293.054 103.978 294.308 105.725C295.62 107.398 297.118 108.919 298.801 110.286C300.551 111.646 302.718 112.193 305.305 111.925C309.748 111.465 311.842 110.008 311.588 107.554C311.375 105.499 308.766 102.954 303.76 99.9201C301.613 98.6009 299.26 97.2361 296.701 95.8255C294.142 94.4149 291.782 92.9837 289.621 91.5319C284.514 88.1733 281.817 85.1015 281.528 82.3164C281.261 79.7302 281.718 77.6722 282.9 76.1423C284.141 74.5392 285.716 73.2368 287.623 72.235C290.225 70.8262 294.32 69.5978 299.908 68.55L304.871 67.9355L312.421 67.0532C315.338 66.7511 317.116 66.7681 317.754 67.1041C318.685 67.678 319.247 68.8933 319.439 70.75C319.631 72.6068 319.766 74.2348 319.844 75.6343C319.988 77.0268 320.049 78.2605 320.026 79.3352C319.988 81.551 319.438 82.7138 318.377 82.8236C316.918 82.9747 315.566 82.545 314.322 81.5344C313.071 80.4575 311.843 79.2777 310.638 77.995C309.499 76.7055 308.308 75.5554 307.064 74.5448C305.879 73.4611 304.558 72.9948 303.099 73.1458ZM367.331 69.9127C364.546 70.2011 363.081 69.649 362.937 68.2564C362.93 68.1901 363.032 67.878 363.242 67.32C363.445 66.6957 363.676 66.3367 363.935 66.2429L383.108 63.0511C383.108 63.0511 383.141 63.0477 383.207 63.0408C383.406 63.0202 383.868 63.274 384.593 63.8021L385.79 64.6835C385.941 66.1423 384.167 67.1304 380.467 67.6475C379.539 67.7437 378.713 67.8627 377.991 68.0045C377.74 73.9955 376.934 79.8094 375.575 85.4462L372.3 99.4579C371.411 103.169 370.612 106.134 369.904 108.352C369.261 110.563 368.49 112.821 367.589 115.127C366.695 117.498 365.699 119.846 364.599 122.172C363.499 124.498 362.376 126.591 361.228 128.453C358.576 132.615 356.089 134.816 353.768 135.056C353.702 135.063 353.669 135.066 353.669 135.066C349.491 135.499 344.617 133.088 339.046 127.834C336.078 125.058 334.033 122.79 332.913 121.03C331.792 119.269 331.201 118.09 331.139 117.494C331.077 116.897 331.225 116.379 331.581 115.94C331.945 115.567 332.415 115.25 332.991 114.989C333.759 114.642 334.873 114.392 336.332 114.241C337.791 114.09 338.958 114.036 339.834 114.08C340.71 114.123 341.546 114.439 342.345 115.026C344.167 116.446 345.336 119.643 345.851 124.616C347.429 126.262 348.547 127.353 349.206 127.888C350.656 128.944 352.077 129.4 353.469 129.256C354.988 129.032 356.734 126.807 358.71 122.581C360.619 118.362 361.443 114.992 361.182 112.472C360.928 110.019 360.31 107.938 359.329 106.23C358.407 104.449 357.257 102.725 355.878 101.058C354.565 99.3843 353.12 97.7243 351.542 96.0781C350.023 94.3587 348.298 92.2586 346.365 89.7778C344.492 87.2238 342.261 84.7739 339.673 82.428C337.15 80.0753 334.089 78.3481 330.49 77.2463C330.005 77.0954 329.425 76.988 328.748 76.924C328.011 76.9333 327.298 76.8396 326.607 76.643C324.888 76.2179 323.97 75.4416 323.853 74.3143C323.729 73.1207 324.104 72.2106 324.978 71.584C325.844 70.891 326.993 70.3364 328.425 69.9201C329.849 69.4374 331.45 69.0371 333.226 68.7191C335.003 68.4011 336.319 68.1643 337.174 68.0087C338.023 67.7868 338.612 67.6587 338.944 67.6243C339.276 67.59 339.677 67.582 340.148 67.6002C340.685 67.6116 341.223 67.623 341.76 67.6343C342.364 67.6389 343.047 67.7691 343.811 68.0252C344.568 68.2149 345.605 68.8447 346.922 69.9147L350.737 73.7422C353.147 76.3076 355.355 78.8604 357.361 81.4007L364.568 90.8083C365.62 91.9058 366.87 93.6195 368.318 95.9495L368.915 95.8877C369.118 95.2634 369.637 92.8303 370.471 88.5885C371.305 84.3467 372.216 78.2538 373.203 70.3099L372.949 68.8282L367.331 69.9127ZM435.849 99.1104L419.814 100.57C419.019 100.652 418.487 100.372 418.219 99.7296C417.872 98.9614 417.66 98.2125 417.585 97.4831C417.523 96.8863 417.71 96.4312 418.147 96.1179C418.584 95.8046 419.09 95.5176 419.666 95.2568C420.309 94.9892 420.915 94.6919 421.484 94.3648C422.12 94.0309 422.529 93.4524 422.712 92.6291C423.178 83.5328 422.925 71.0592 421.954 55.2082C421.654 51.0168 421.437 47.9562 421.304 46.0263L420.882 41.9481C420.8 41.1523 420.651 40.3634 420.436 39.5814C416.391 40.0003 414.025 39.8096 413.339 39.0094C412.5 38.0239 411.998 36.7354 411.833 35.1439C418.926 33.7392 425.675 32.5712 432.08 31.6399C438.478 30.6422 442.274 30.0816 443.467 29.958C448.109 29.4773 450.549 30.0625 450.787 31.7134C450.869 32.5091 450.252 33.3438 448.935 34.2175C447.611 35.0248 446.98 35.7269 447.042 36.3237C447.097 36.8542 447.641 37.9037 448.675 39.4722C449.768 40.9676 451.011 42.615 452.404 44.4144C455.562 48.3769 458.08 51.3332 459.957 53.2835C460.076 53.1372 460.335 53.0434 460.733 53.0022C462.722 52.7962 464.252 52.0346 465.322 50.7174C465.562 51.0947 465.723 51.6812 465.805 52.4769C465.881 53.2063 465.807 53.7837 465.583 54.2091C465.425 54.6275 465.168 55.0563 464.811 55.4954C463.993 56.6525 463.631 57.6953 463.728 58.6236C463.817 59.4857 463.928 59.9098 464.06 59.8961C464.408 60.6644 465.302 62.1803 466.743 64.444L470.355 70.2025C471.323 71.7779 472.28 73.2539 473.227 74.6303C474.174 76.0068 474.971 77.2312 475.618 78.3036C476.331 79.3691 476.805 80.0573 477.038 80.3683C477.36 77.654 477.24 73.5781 476.677 68.1405C476.107 62.6366 475.52 57.9387 474.916 54.0469C474.371 50.0819 473.801 46.5217 473.206 43.3661C471.921 36.1267 471.046 32.5311 470.581 32.5791L461.314 34.3431C461.115 32.4201 461.309 31.0595 461.896 30.2614C462.484 29.4633 463.04 29.0036 463.563 28.8824L465.731 28.4568C466.513 28.2418 467.328 28.0233 468.176 27.8014C469.105 27.7053 469.927 27.5532 470.643 27.345C473.254 26.6725 475.753 26.2126 478.14 25.9654C481.721 25.5946 483.642 25.6973 483.903 26.2735L484.339 28.5407C483.682 28.6756 482.841 28.9638 481.814 29.4053C480.847 29.7735 480.006 30.0617 479.29 30.2699C479.105 30.4231 478.671 30.7696 477.99 31.3093C477.302 31.7827 476.865 32.096 476.68 32.2492C476.668 32.7866 476.695 33.6887 476.759 34.9555C476.883 36.1491 476.954 37.4822 476.972 38.9548C477.05 42.2979 477.141 44.4668 477.244 45.4614L477.408 47.0529C479.283 63.2125 480.637 73.6955 481.469 78.5019C482.302 83.3084 482.756 86.0763 482.832 86.8057C483.027 91.2761 476.325 94.517 462.726 96.5284C461.4 96.6657 460.381 96.5366 459.67 96.1411C459.019 95.6724 458.631 94.8412 458.507 93.6476C458.377 92.3877 458.364 91.6182 458.469 91.3392L444.072 71.7178L437.757 72.8744C437.73 72.6091 437.699 72.3107 437.665 71.9792C437.69 71.5744 437.8 71.0268 437.997 70.3362C438.253 69.5724 438.689 68.9241 439.304 68.3913C439.919 67.8584 440.168 67.0283 440.051 65.901C439.928 64.7074 439.332 63.1606 438.264 61.2605C437.129 59.3672 435.849 57.3551 434.421 55.2241C431.428 50.9095 428.523 47.457 425.708 44.8665C425.432 45.4313 425.352 46.2774 425.468 47.4047L425.654 49.1951C425.917 52.385 426.176 57.1503 426.43 63.4912C426.898 75.775 427.273 83.2763 427.554 85.9951C428.097 91.2337 428.591 94.0646 429.037 94.4875C429.337 94.7916 429.884 94.9025 430.68 94.8201C431.476 94.7377 432.308 94.685 433.177 94.662C434.112 94.6322 434.929 94.7488 435.626 95.0117C436.39 95.2677 436.833 95.9925 436.957 97.1861C437.081 98.3797 436.711 99.0212 435.849 99.1104ZM514.039 78.2459L514.073 79.5493C514.375 82.467 515.369 84.9445 517.055 86.9817C517.661 87.6562 518.176 88.1055 518.602 88.3295C519.02 88.4873 519.561 88.5318 520.224 88.4631L521.617 88.3189C526.259 87.8382 530.456 86.2978 534.208 83.6975C534.896 83.224 535.564 82.5517 536.211 81.6804L538.33 78.8471C538.977 77.9758 539.601 77.2074 540.203 76.5419C540.797 75.8101 541.359 75.4168 541.89 75.3618C542.42 75.3069 542.849 75.5641 543.176 76.1334C543.503 76.7028 543.684 77.1532 543.718 77.4848C543.721 78.1548 543.019 79.4674 541.613 81.4226C540.081 83.4579 538.349 85.1788 536.417 86.5853C534.478 87.9254 532.356 89.117 530.051 90.1599C525.627 92.0926 521.127 93.2959 516.551 93.7697C516.492 93.8428 516.429 93.8829 516.363 93.8897C511.853 94.3567 507.924 93.6242 504.574 91.6923C501.157 89.7673 498.01 87.2112 495.133 84.0239C493.695 82.4302 492.777 80.6822 492.379 78.7797C491.974 76.811 491.644 74.5998 491.39 72.1463C491.129 69.6264 491.876 66.8012 493.629 63.6706C495.383 60.54 497.631 57.6597 500.375 55.0298C503.112 52.3336 506.096 50.0809 509.326 48.2718C512.624 46.4559 515.399 45.4312 517.654 45.1977C519.909 44.9642 522.118 44.9366 524.281 45.1147C526.364 45.1671 528.382 45.5613 530.335 46.2974C534.931 47.9662 537.449 50.9226 537.889 55.1666C538.465 60.7368 535.976 65.8203 530.42 70.417C525.737 74.3871 520.277 76.9967 514.039 78.2459ZM511.984 71.0191C512.052 71.6822 512.442 72.2116 513.153 72.6071C513.865 73.0026 514.817 73.1386 516.011 73.015C516.077 73.0081 516.11 73.0047 516.11 73.0047C518.365 72.7712 520.582 70.5643 522.764 66.3841C524.839 62.4829 525.73 59.1066 525.434 56.2551C525.256 54.531 524.75 53.2094 523.918 52.2903C522.406 50.6372 520.888 49.8896 519.363 50.0475C517.904 50.1986 516.686 51.0619 515.71 52.6375C514.668 54.22 513.851 56.0471 513.262 58.1189C511.991 62.674 511.565 66.9741 511.984 71.0191ZM579.91 89.0184C578.385 89.1763 577.462 89.0038 577.142 88.5007C576.895 88.0572 576.72 87.338 576.617 86.3433C576.521 85.415 576.654 84.7644 577.018 84.3917C577.441 83.9457 577.947 83.6587 578.537 83.5306C579.127 83.4025 579.687 83.3109 580.218 83.256C580.741 83.1348 581.075 82.7986 581.219 82.2475C580.094 81.0906 579.115 80.0525 578.283 79.1334L576.005 76.5543C574.8 75.2716 573.166 73.7317 571.103 71.9346C570.44 72.0033 569.093 72.9135 567.063 74.6653L561.984 79.0116L559.038 81.6289L557.738 82.6684C557.559 82.8879 557.404 83.0045 557.271 83.0183C557.678 83.7134 558.353 84.0792 559.295 84.1156C560.297 84.079 561.298 84.0423 562.3 84.0056C563.294 83.9026 564.203 83.9425 565.027 84.1253C565.85 84.3082 566.309 84.8638 566.406 85.7922C566.502 86.7205 566.298 87.3448 565.795 87.665C565.365 88.0446 564.487 88.3031 563.161 88.4404L558.387 88.9348C551.623 89.6353 546.636 90.0176 543.425 90.082C543.37 89.5515 543.375 88.9478 543.439 88.271C543.503 87.5941 544.184 87.0544 545.483 86.6518C548.604 85.7254 550.521 84.8231 551.235 83.945C552.014 83.06 553.045 82.0149 554.328 80.8097L558.176 77.1941L562.323 73.5476C563.672 72.3355 564.829 71.2104 565.793 70.1721L566.13 69.5341C565.16 67.2887 563.919 65.3395 562.407 63.6864C560.889 61.967 559.611 60.6249 558.572 59.66C557.594 58.622 556.604 57.4845 555.605 56.2475C555.013 55.7056 554.496 54.9214 554.054 53.8947C553.345 52.2255 552.211 51.3041 550.652 51.1305C548.687 50.9318 547.449 50.6243 546.937 50.2082C546.425 49.7921 546.127 49.1862 546.045 48.3904C545.873 46.7326 546.318 45.8488 547.379 45.7389L569.162 43.4832C569.215 43.3437 569.433 43.187 569.817 43.0132C570.202 42.8394 570.526 42.7387 570.792 42.7113C571.057 42.6838 571.432 42.7455 571.917 42.8964C572.461 42.9741 572.982 43.1547 573.481 43.4382C574.69 44.1172 575.333 44.8214 575.409 45.5508C575.484 46.2802 575.38 46.8942 575.097 47.3927C574.879 47.8844 574.751 48.2663 574.713 48.5384L569.739 49.0534C569.774 49.385 570.522 50.1452 571.986 51.3341L575.608 54.2766C576.567 55.1157 577.375 55.8028 578.034 56.3378C578.685 56.8065 579.204 57.2889 579.591 57.7851C580.037 58.2081 580.525 58.3921 581.056 58.3372C581.652 58.2754 582.503 57.7516 583.607 56.766C584.712 55.7803 585.865 54.622 587.068 53.2911C590.214 50.0163 591.875 47.9341 592.051 47.0446C591.116 47.0744 590.167 46.9716 589.204 46.7362C588.241 46.5007 587.702 45.8194 587.585 44.6921C587.489 43.7637 588.104 43.2309 589.43 43.0935L590.733 43.0591C596.212 42.8939 600.066 42.8969 602.296 43.0682C603.053 43.2579 603.486 43.8833 603.596 44.9443C603.74 46.3368 601.425 47.2803 596.651 47.7747C591.886 52.8927 588.704 56.4728 587.106 58.5149C585.508 60.5571 584.719 61.6776 584.74 61.8765C584.754 62.0092 585.063 62.4127 585.669 63.0872C586.15 63.8418 586.769 64.6489 587.529 65.5086C589.127 67.3537 590.362 68.5998 591.233 69.2469L594.029 71.9734C594.176 72.0923 594.485 72.4959 594.959 73.1841L596.677 75.2179C597.29 75.9587 597.834 76.6732 598.307 77.3615C598.847 78.0428 599.193 78.4761 599.346 78.6613C599.401 79.1918 599.963 79.4353 601.031 79.3917C602.165 79.3413 603.402 79.3137 604.742 79.309C606.141 79.2311 607.392 79.3362 608.494 79.6242C609.656 79.839 610.295 80.5101 610.412 81.6374C609.328 82.822 607.971 83.6327 606.341 84.0697C604.717 84.5729 602.918 84.9938 600.942 85.3324C599.033 85.6642 595.724 86.0739 591.016 86.5614C586.308 87.0489 582.606 87.8679 579.91 89.0184ZM665.91 78.806C659.411 79.4789 653.993 76.0186 649.654 68.4251C649.391 71.0662 647.262 73.8001 643.265 76.6268C639.579 79.2203 636.112 80.6852 632.862 81.0217C628.685 81.4543 624.845 79.9752 621.344 76.5845C618.289 73.6167 616.558 70.1766 616.153 66.2642L614.433 49.6531C614.351 48.8573 614.087 48.2479 613.641 47.825C613.188 47.3357 612.705 46.883 612.193 46.4668C611.674 45.9844 611.188 45.4985 610.735 45.0093C610.276 44.4536 609.998 43.7117 609.902 42.7833C609.702 40.8602 612.852 39.5622 619.351 38.8893L623.23 38.4876C625.683 38.2335 627.381 38.1247 628.323 38.1612L632.138 39.0732C632.385 41.4604 632.543 44.9293 632.612 49.4797C632.709 58.1827 632.844 63.698 633.018 66.0258L633.132 67.12C633.397 69.0362 633.693 70.2789 634.021 70.8483C634.814 72.0395 636.007 72.5528 637.598 72.388C638.725 72.2712 639.719 71.8332 640.579 71.074L642.89 69.1255C643.002 68.9128 643.428 68.1651 644.166 66.8822C645.611 64.6548 646.32 63.4085 646.292 63.1433L643.676 37.8784C643.463 35.8227 646.997 34.3509 654.278 33.4629L659.35 32.9376C660.743 32.7934 661.689 32.8631 662.187 33.1466C662.745 33.3569 663.062 33.8268 663.137 34.5562C663.206 35.2193 663.221 35.6869 663.182 35.959C663.136 36.1648 662.955 36.3512 662.637 36.5182C662.589 37.9976 662.464 39.3845 662.263 40.6788L661.838 44.342C661.516 47.0563 661.489 49.7065 661.757 52.2927C662.821 62.5711 665.41 68.8042 669.524 70.9921C670.94 71.7168 672.129 72.1969 673.092 72.4323C674.121 72.6609 674.638 72.8083 674.645 72.8747C674.748 73.8693 673.734 75.0802 671.603 76.5073C668.736 77.9436 666.904 78.703 666.109 78.7854C666.109 78.7854 666.076 78.7888 666.009 78.7957L665.91 78.806ZM698.834 32.1667C693.33 32.7366 690.664 33.8505 690.836 35.5083C691.049 37.5639 691.867 39.3223 693.292 40.7833C694.717 42.2443 696.433 43.6081 698.441 44.8747C700.442 46.075 702.605 47.225 704.931 48.3246C707.323 49.4174 709.523 50.5971 711.53 51.8637C716.264 54.8587 718.827 58.2461 719.218 62.0259C719.699 66.6677 717.442 70.1185 712.448 72.3783C709.375 73.7688 705.451 74.7114 700.677 75.2058C695.969 75.6933 692.019 75.7337 688.826 75.327C685.701 74.9135 683.162 74.6736 681.212 74.6075C679.335 74.6008 678.169 74.3529 677.717 73.8636C677.33 73.3674 677.099 72.7546 677.024 72.0252C676.941 71.2294 677.035 70.516 677.305 69.8848C677.568 69.1874 677.9 68.5162 678.303 67.8713C679.45 66.0099 680.119 64.7007 680.309 63.9438C680.492 63.1206 680.615 62.3706 680.679 61.6937C680.757 61.1495 680.901 60.5984 681.111 60.0404C681.518 58.7919 682.285 58.1092 683.412 57.9925C684.606 57.8689 685.679 58.5285 686.633 59.9713C687.653 61.4072 688.79 62.9986 690.043 64.7454C691.356 66.4191 692.854 67.9396 694.537 69.3068C696.286 70.6672 698.454 71.2135 701.04 70.9457C705.483 70.4856 707.577 69.0288 707.323 66.5753C707.111 64.5196 704.501 61.9748 699.495 58.9409C697.348 57.6218 694.995 56.2569 692.436 54.8463C689.877 53.4357 687.517 52.0045 685.356 50.5527C680.25 47.1941 677.552 44.1223 677.264 41.3372C676.996 38.751 677.453 36.693 678.635 35.1631C679.877 33.56 681.451 32.2576 683.358 31.2559C685.96 29.847 690.055 28.6187 695.644 27.5708L700.607 26.9563L708.156 26.0741C711.074 25.7719 712.852 25.7889 713.49 26.125C714.421 26.6988 714.982 27.9141 715.174 29.7709C715.367 31.6276 715.502 33.2557 715.58 34.6551C715.724 36.0477 715.784 37.2813 715.762 38.356C715.723 40.5718 715.173 41.7346 714.112 41.8445C712.653 41.9955 711.302 41.5658 710.058 40.5552C708.807 39.4783 707.579 38.2985 706.374 37.0159C705.235 35.7263 704.043 34.5763 702.799 33.5657C701.615 32.4819 700.293 32.0156 698.834 32.1667ZM372.654 158.23C372.621 157.912 372.679 157.616 372.827 157.344C372.974 157.055 373.173 156.801 373.424 156.582C373.94 156.126 374.508 155.867 375.129 155.802C375.749 155.738 376.232 155.889 376.575 156.256C376.917 156.606 377.119 157.076 377.18 157.665C377.239 158.238 377.082 158.745 376.71 159.185C376.335 159.61 375.822 159.856 375.17 159.924C374.659 159.961 374.13 159.831 373.585 159.533C373.036 159.204 372.726 158.77 372.654 158.23ZM402.187 161.228L394.835 161.989C394.691 162.004 394.574 161.96 394.483 161.857C394.406 161.736 394.359 161.588 394.341 161.413C394.323 161.238 394.402 161.069 394.578 160.906C394.767 160.87 394.98 160.832 395.217 160.792C395.47 160.749 395.707 160.709 395.929 160.67C396.435 160.585 396.707 160.501 396.747 160.416L398.528 153.62L398.535 153.451C398.471 152.83 397.789 152.539 396.49 152.577C396.2 152.575 395.977 152.59 395.819 152.622C395.182 152.688 394.649 152.969 394.217 153.464C393.8 153.941 393.627 154.522 393.698 155.206C393.746 155.668 393.992 155.876 394.438 155.83C394.756 155.797 394.948 155.704 395.013 155.553C395.093 155.4 395.121 155.204 395.097 154.965L395.037 154.392C395.07 154.244 395.117 154.151 395.177 154.112C395.238 154.074 395.331 154.048 395.459 154.035C395.602 154.02 395.725 154.047 395.829 154.117C395.933 154.187 396.022 154.274 396.098 154.379C396.25 154.604 396.329 154.829 396.336 155.054C396.359 155.277 396.325 155.489 396.233 155.692C396.158 155.893 396.049 156.081 395.906 156.257C395.56 156.646 395.22 156.858 394.886 156.893C394.265 156.957 393.764 156.856 393.383 156.59C393.016 156.307 392.805 155.902 392.751 155.377C392.694 154.836 392.725 154.35 392.841 153.92C392.957 153.49 393.143 153.108 393.398 152.776C393.951 152.06 394.665 151.656 395.541 151.565C396.146 151.503 396.692 151.502 397.181 151.564C397.669 151.61 398.202 151.788 398.781 152.098L398.831 152.117C398.847 152.116 398.884 152.088 398.943 152.033C399.002 151.979 399.029 151.936 399.026 151.904L400.438 146.667L400.431 146.595C400.428 146.563 400.4 146.526 400.347 146.483C400.308 146.423 400.273 146.394 400.241 146.398L396.995 146.734C396.883 146.745 396.821 146.687 396.808 146.56C396.793 146.417 396.806 146.231 396.847 146.001C396.903 145.77 397.003 145.647 397.146 145.632L407.508 144.342C407.636 144.329 407.739 144.391 407.817 144.527C407.894 144.648 407.946 144.836 407.972 145.09C407.998 145.345 407.932 145.481 407.773 145.497L405.6 145.722L407.88 150.722C407.929 150.894 407.982 151.009 408.036 151.068C408.09 151.126 408.277 151.139 408.595 151.106C408.913 151.073 409.304 150.96 409.766 150.768C410.243 150.558 410.752 150.424 411.293 150.368C411.564 150.34 411.715 150.478 411.746 150.78C411.766 150.971 411.71 151.13 411.578 151.256C411.445 151.366 411.291 151.438 411.118 151.472L408.975 151.984C408.784 152.004 408.698 152.101 408.716 152.276L411.88 159.066L413.204 159.267C413.398 159.279 413.505 159.38 413.525 159.571C413.545 159.762 413.513 159.919 413.429 160.04C413.332 160.034 413.235 160.036 413.14 160.046L412.853 160.075L408.354 160.662C408.179 160.68 408.064 160.66 408.01 160.601C407.955 160.542 407.917 160.402 407.894 160.179C407.871 159.956 407.966 159.793 408.181 159.691C408.394 159.572 408.585 159.48 408.755 159.414C408.941 159.346 409.107 159.313 409.252 159.314C409.411 159.298 409.579 159.288 409.756 159.286C410.109 159.282 410.389 159.269 410.596 159.247L410.566 158.961L407.791 152.661L407.528 152.689C407.465 152.695 407.144 153.018 406.567 153.657L405.506 154.828C405.363 155.004 405.267 155.167 405.219 155.316C405.186 155.465 405.05 155.551 404.811 155.576C404.572 155.6 404.374 155.549 404.216 155.42C404.074 155.29 403.93 155.144 403.785 154.982C403.655 154.819 403.511 154.673 403.353 154.544C403.211 154.414 403.076 154.356 402.949 154.369C402.838 154.381 402.783 154.394 402.784 154.41C402.784 154.41 402.776 154.411 402.76 154.413L402.737 154.415L401.39 159.815C401.361 159.85 401.353 159.931 401.367 160.058C401.378 160.17 401.425 160.237 401.508 160.261L401.828 160.324C401.945 160.36 402.047 160.414 402.135 160.486C402.238 160.555 402.301 160.694 402.322 160.9C402.344 161.107 402.299 161.217 402.187 161.228ZM403.13 152.854L403.121 153C403.134 153.127 403.158 153.205 403.193 153.234C403.244 153.261 403.329 153.3 403.447 153.352L403.808 153.58L404.268 153.822C404.405 153.905 404.575 153.992 404.777 154.083L407.026 151.8C407.207 151.684 407.297 151.619 407.295 151.603C407.292 151.571 407.281 151.54 407.261 151.51L407.256 151.462L404.908 146.493L403.13 152.854ZM428.978 158.767C425.043 159.288 422.821 159.574 422.311 159.627C421.802 159.679 421.403 159.705 421.113 159.703C420.823 159.7 420.663 159.556 420.634 159.27C420.578 158.729 421.043 158.407 422.03 158.305C422.332 158.273 422.499 158.176 422.53 158.012C422.576 157.83 422.583 157.588 422.552 157.286L422.13 154.844L421.996 152.155L421.686 152.188C421.336 152.224 421.067 152.195 420.881 152.102C420.708 151.991 420.614 151.856 420.598 151.697C420.556 151.299 420.981 151.054 421.873 150.962C421.947 150.439 421.942 149.772 421.858 148.961L421.688 147.313L421.481 145.549L421.414 144.905L421.185 144.325L418.647 144.275C418.484 144.259 418.38 144.19 418.335 144.066C418.306 143.94 418.286 143.821 418.274 143.71C418.261 143.583 418.258 143.47 418.264 143.373C418.284 143.259 418.37 143.161 418.523 143.081C419.335 142.997 420.265 142.973 421.314 143.009C423.284 143.079 424.492 143.09 424.937 143.044L426.107 142.923L426.582 142.85L431.217 141.477L433.437 141.247L433.61 141.519L433.907 143.684C433.948 144.081 433.93 144.453 433.854 144.799C433.775 145.129 433.545 145.314 433.163 145.353L432.948 145.375C432.9 145.38 432.86 145.376 432.826 145.364L430.335 143.209L430.072 143.236C428.911 143.356 427.94 143.537 427.161 143.779C426.382 144.021 425.988 144.182 425.98 144.263C425.977 144.698 425.985 145.083 426.004 145.419L426.055 146.379C426.069 146.667 426.092 146.97 426.125 147.288L426.394 149.89C426.639 150.074 426.936 150.148 427.286 150.112L427.334 150.107C427.7 150.069 427.959 150.01 428.111 149.93C428.531 149.79 428.802 149.689 428.925 149.628C429.061 149.55 429.137 149.429 429.153 149.267L429.244 148.751C429.259 148.588 429.284 148.441 429.319 148.309C429.368 148.159 429.48 148.075 429.655 148.057C430.053 148.016 430.288 148.345 430.36 149.045C430.416 149.587 430.409 150.134 430.337 150.689C430.282 151.241 430.205 151.659 430.105 151.943C430.006 152.227 429.861 152.379 429.67 152.398L429.421 152.328C429.272 152.279 429.194 152.23 429.189 152.183L429.048 150.822L426.685 151.067L426.55 151.394L426.706 152.898C426.915 154.92 427.139 156.537 427.377 157.751C427.403 157.845 427.495 157.884 427.655 157.867L429.382 157.543C429.828 157.497 430.069 157.649 430.105 157.999C430.15 158.429 429.774 158.685 428.978 158.767ZM440.786 149.582C440.656 148.325 440.034 147.754 438.92 147.87C438.442 147.919 438.127 148.137 437.974 148.522C437.9 148.739 437.868 148.976 437.879 149.232C437.903 149.471 437.951 149.619 438.021 149.676C438.107 149.731 438.159 149.838 438.175 149.998C438.205 150.284 438.057 150.492 437.733 150.622C437.533 150.707 437.234 150.771 436.836 150.812C436.549 150.841 436.199 150.95 435.784 151.138C435.369 151.326 435.13 151.423 435.066 151.429C434.923 151.444 434.802 151.368 434.705 151.201C434.623 151.033 434.574 150.869 434.557 150.71C434.528 150.424 434.664 149.959 434.968 149.316C435.286 148.656 435.569 148.208 435.818 147.974C436.274 147.556 436.697 147.215 437.087 146.949C437.476 146.668 437.894 146.504 438.339 146.458C440.631 146.22 442.175 146.68 442.97 147.836C443.424 148.497 443.703 149.321 443.805 150.307C443.849 150.737 443.839 151.18 443.774 151.638C443.709 152.095 443.697 152.53 443.74 152.944C443.809 153.612 444.009 154.219 444.339 154.764C444.74 155.221 445.072 155.476 445.335 155.53C445.43 155.52 445.515 155.479 445.588 155.407C445.677 155.333 445.761 155.292 445.84 155.284C446.175 155.25 446.359 155.399 446.394 155.734C446.427 156.052 446.312 156.345 446.05 156.614C445.527 157.15 445.003 157.446 444.477 157.5C443.952 157.555 443.575 157.562 443.346 157.521C443.116 157.48 442.908 157.413 442.722 157.32C442.535 157.227 442.371 157.123 442.231 157.009L441.812 156.691L441.417 156.37C441.31 156.268 441.248 156.218 441.232 156.22C440.285 157.637 438.984 158.431 437.329 158.602C436.39 158.7 435.584 158.453 434.912 157.864C434.256 157.272 433.898 156.69 433.838 156.117C433.726 155.035 434.177 154.103 435.19 153.323C436.235 152.539 437.87 151.871 440.097 151.319C440.319 151.28 440.488 151.206 440.605 151.097C440.812 150.915 440.872 150.41 440.786 149.582ZM437.861 153.722C437.716 154.026 437.656 154.306 437.682 154.561C437.745 155.165 437.858 155.717 438.023 156.214C438.187 156.712 438.406 156.963 438.68 156.967C439.077 156.925 439.408 156.779 439.672 156.526C440.14 156.076 440.369 155.65 440.36 155.248L440.337 152.235C439.096 152.363 438.27 152.859 437.861 153.722ZM447.696 156.877C447.244 156.86 446.992 156.605 446.941 156.111C446.95 155.885 446.999 155.743 447.09 155.686C447.18 155.628 447.305 155.591 447.464 155.574L447.658 155.579C448.103 155.532 448.37 155.312 448.458 154.917C448.529 154.668 448.534 154.249 448.473 153.66C448.468 153.613 448.455 153.566 448.434 153.52C448.429 153.472 448.424 153.424 448.419 153.376C448.353 152.74 448.335 152.018 448.364 151.211C448.389 150.371 448.367 149.61 448.296 148.925C448.223 148.225 448.136 147.615 448.034 147.095L446.941 147.256L446.702 147.281C446.556 147.264 446.391 147.233 446.21 147.187C446.028 147.141 445.931 147.055 445.918 146.928C445.904 146.8 445.94 146.676 446.024 146.555C446.124 146.432 446.186 146.337 446.211 146.27C446.309 146.276 446.397 146.275 446.476 146.267L447.002 146.212C447.272 146.184 447.502 146.152 447.691 146.117C447.881 146.081 448.023 146.058 448.119 146.048C448.228 146.021 448.33 145.994 448.424 145.968C448.534 145.941 448.748 145.911 449.066 145.878C449.528 145.83 450.13 145.591 450.874 145.16C451.068 145.172 451.234 145.219 451.371 145.301C451.523 145.366 451.632 145.411 451.699 145.436L451.7 146.618C451.736 146.647 451.785 146.658 451.849 146.651C451.976 146.638 452.202 146.486 452.525 146.195C453.239 145.784 453.81 145.475 454.239 145.27C454.667 145.049 455.008 144.925 455.262 144.898C455.517 144.872 455.768 144.886 456.015 144.941C456.278 144.994 456.545 145.087 456.816 145.22C457.441 145.509 457.891 145.897 458.167 146.383C458.627 147.252 458.888 147.989 458.951 148.594C458.977 148.849 458.98 149.186 458.959 149.607C458.912 150.4 458.901 150.988 458.924 151.372C458.985 151.961 459.069 152.378 459.175 152.625C459.265 152.873 459.352 153.089 459.435 153.273C459.629 153.752 459.776 154.002 459.875 154.024C459.963 154.095 460.072 154.14 460.202 154.159C460.331 154.162 460.461 154.172 460.592 154.191C460.886 154.241 461.045 154.377 461.068 154.6C461.091 154.823 460.728 155.037 459.977 155.244C459.54 155.37 459.146 155.451 458.796 155.487C458.079 155.561 457.508 155.475 457.08 155.23C455.864 154.52 455.125 152.891 454.861 150.345C454.64 148.212 454.116 147.189 453.288 147.274C452.859 147.319 452.49 147.566 452.183 148.016C451.89 148.449 451.747 148.85 451.753 149.219L451.765 153.995C451.822 154.552 452.022 154.926 452.363 155.115C452.703 155.289 453.138 155.373 453.668 155.366C453.781 155.371 453.845 155.445 453.86 155.588C453.891 155.89 453.62 156.071 453.047 156.13C452.84 156.152 452.59 156.137 452.295 156.088C451.706 155.988 451.156 155.964 450.647 156.017C450.154 156.068 449.17 156.355 447.696 156.877ZM463.709 143.493L463.425 142.147L463.401 142.15C463.321 142.158 463.032 142.236 462.532 142.384C462.357 142.402 462.183 142.356 462.011 142.245C461.839 142.134 461.743 141.983 461.723 141.792C461.702 141.586 461.757 141.419 461.888 141.293C462.034 141.149 462.223 141.025 462.453 140.921C462.714 140.797 463.283 140.626 464.161 140.406L464.593 140.385C464.845 140.327 465.09 140.213 465.33 140.044L466.007 139.588C466.486 139.248 466.893 139.061 467.227 139.027C467.577 138.991 467.786 139.065 467.854 139.251C467.936 139.42 467.99 139.631 468.016 139.886L467.996 140.154C467.929 141.222 467.914 141.931 467.95 142.282C467.987 142.632 468.015 142.902 468.035 143.093L468.142 143.661C468.161 143.852 468.179 144.027 468.196 144.186C468.228 144.344 468.248 144.455 468.254 144.518C468.62 144.48 468.975 144.411 469.319 144.311C469.662 144.212 470.025 144.142 470.407 144.102C470.805 144.061 471.02 144.2 471.053 144.518C471.075 144.725 471.043 144.889 470.96 145.01C470.514 145.056 469.977 145.152 469.349 145.298C468.72 145.443 468.375 145.527 468.313 145.55C468.194 145.642 468.111 146.085 468.065 146.878C468.018 147.671 468 148.196 468.01 148.452C468.035 148.691 468.044 148.931 468.037 149.173C468.03 149.415 468.015 149.666 467.994 149.926C467.944 150.526 467.954 151.169 468.025 151.853C468.058 152.171 468.208 152.453 468.474 152.699C468.741 152.945 469.041 153.051 469.376 153.016L470.278 152.874C470.501 152.851 470.703 152.862 470.885 152.908C471.082 152.952 471.193 153.093 471.218 153.332C471.22 153.348 471.213 153.364 471.199 153.382L471.202 153.406C470.765 154.159 469.56 154.638 467.586 154.842C466.297 154.975 465.319 154.618 464.652 153.77C464.153 153.147 463.844 152.254 463.723 151.092C463.704 150.901 463.684 149.624 463.665 147.262L463.508 146.216L460.572 146.52C460.46 146.532 460.373 146.468 460.311 146.33C460.232 146.193 460.189 146.085 460.181 146.006C460.156 145.767 460.25 145.588 460.463 145.47C462.471 145.133 463.55 144.917 463.701 144.821C463.738 144.238 463.74 143.795 463.709 143.493ZM479.439 145.58C479.309 144.323 478.687 143.752 477.573 143.867C477.095 143.916 476.78 144.134 476.627 144.52C476.553 144.737 476.521 144.973 476.531 145.229C476.556 145.468 476.604 145.616 476.674 145.673C476.76 145.729 476.811 145.836 476.828 145.995C476.857 146.281 476.71 146.49 476.386 146.62C476.185 146.705 475.886 146.768 475.489 146.809C475.202 146.839 474.851 146.948 474.437 147.135C474.022 147.323 473.782 147.42 473.719 147.427C473.575 147.442 473.455 147.366 473.357 147.199C473.276 147.03 473.226 146.867 473.21 146.707C473.18 146.421 473.317 145.956 473.621 145.314C473.938 144.653 474.222 144.206 474.471 143.971C474.926 143.554 475.349 143.212 475.74 142.947C476.129 142.665 476.546 142.501 476.992 142.455C479.284 142.218 480.827 142.677 481.623 143.834C482.077 144.494 482.355 145.318 482.458 146.305C482.502 146.734 482.492 147.178 482.426 147.635C482.361 148.092 482.35 148.528 482.393 148.941C482.462 149.61 482.662 150.217 482.992 150.761C483.393 151.219 483.725 151.474 483.988 151.527C484.083 151.517 484.167 151.476 484.24 151.404C484.329 151.331 484.414 151.29 484.493 151.282C484.827 151.247 485.012 151.397 485.046 151.731C485.079 152.049 484.965 152.343 484.703 152.611C484.18 153.148 483.655 153.443 483.13 153.498C482.605 153.552 482.228 153.559 481.998 153.518C481.769 153.478 481.561 153.411 481.374 153.318C481.188 153.224 481.024 153.121 480.884 153.007L480.465 152.688L480.069 152.367C479.962 152.265 479.901 152.216 479.885 152.217C478.938 153.634 477.637 154.429 475.982 154.6C475.043 154.697 474.237 154.451 473.565 153.861C472.908 153.269 472.55 152.687 472.491 152.114C472.379 151.032 472.829 150.101 473.842 149.32C474.887 148.536 476.523 147.868 478.75 147.316C478.971 147.277 479.141 147.203 479.258 147.095C479.464 146.912 479.525 146.407 479.439 145.58ZM476.514 149.719C476.368 150.024 476.309 150.303 476.335 150.558C476.398 151.163 476.511 151.714 476.675 152.212C476.839 152.71 477.058 152.96 477.332 152.964C477.73 152.923 478.061 152.776 478.324 152.524C478.792 152.073 479.022 151.647 479.012 151.246L478.99 148.232C477.748 148.361 476.923 148.856 476.514 149.719ZM490.832 142.349C489.511 142.486 488.871 142.753 488.913 143.151C488.964 143.644 489.16 144.066 489.502 144.417C489.844 144.768 490.256 145.095 490.738 145.399C491.218 145.687 491.737 145.963 492.295 146.227C492.87 146.489 493.397 146.772 493.879 147.076C495.015 147.795 495.63 148.608 495.724 149.515C495.84 150.629 495.298 151.458 494.1 152C493.362 152.334 492.42 152.56 491.275 152.679C490.145 152.796 489.197 152.805 488.43 152.708C487.68 152.608 487.071 152.551 486.603 152.535C486.152 152.533 485.873 152.474 485.764 152.356C485.671 152.237 485.616 152.09 485.598 151.915C485.578 151.724 485.6 151.553 485.665 151.401C485.728 151.234 485.808 151.073 485.905 150.918C486.18 150.472 486.341 150.157 486.386 149.976C486.43 149.778 486.46 149.598 486.475 149.436C486.494 149.305 486.528 149.173 486.579 149.039C486.676 148.739 486.86 148.575 487.131 148.547C487.417 148.518 487.675 148.676 487.904 149.022C488.149 149.367 488.422 149.749 488.722 150.168C489.037 150.57 489.397 150.935 489.801 151.263C490.221 151.589 490.741 151.72 491.362 151.656C492.428 151.546 492.931 151.196 492.87 150.607C492.819 150.114 492.192 149.503 490.991 148.775C490.476 148.458 489.911 148.131 489.297 147.792C488.683 147.454 488.116 147.11 487.598 146.762C486.372 145.956 485.725 145.218 485.655 144.55C485.591 143.929 485.701 143.435 485.985 143.068C486.282 142.684 486.66 142.371 487.118 142.131C487.742 141.792 488.725 141.498 490.067 141.246L491.258 141.099L493.07 140.887C493.77 140.814 494.196 140.818 494.35 140.899C494.573 141.037 494.708 141.329 494.754 141.774C494.8 142.22 494.832 142.61 494.851 142.946C494.886 143.281 494.9 143.577 494.895 143.835C494.886 144.366 494.754 144.645 494.499 144.672C494.149 144.708 493.825 144.605 493.526 144.362C493.226 144.104 492.931 143.821 492.642 143.513C492.368 143.203 492.082 142.927 491.784 142.685C491.5 142.425 491.182 142.313 490.832 142.349ZM506.248 141.573C505.58 141.642 505.228 141.51 505.193 141.176C505.192 141.16 505.216 141.085 505.267 140.951C505.315 140.801 505.371 140.715 505.433 140.692L510.034 139.926C510.034 139.926 510.042 139.926 510.058 139.924C510.106 139.919 510.217 139.98 510.391 140.107L510.678 140.318C510.714 140.668 510.289 140.905 509.401 141.03C509.178 141.053 508.98 141.081 508.806 141.115C508.746 142.553 508.553 143.948 508.226 145.301L507.441 148.664C507.227 149.555 507.036 150.266 506.865 150.799C506.711 151.329 506.526 151.871 506.31 152.424C506.095 152.994 505.856 153.557 505.592 154.115C505.328 154.674 505.059 155.176 504.783 155.623C504.147 156.622 503.55 157.15 502.993 157.208C502.977 157.209 502.969 157.21 502.969 157.21C501.966 157.314 500.797 156.735 499.46 155.474C498.747 154.808 498.257 154.264 497.988 153.841C497.719 153.419 497.577 153.136 497.562 152.993C497.547 152.849 497.582 152.725 497.668 152.62C497.755 152.53 497.868 152.454 498.006 152.392C498.191 152.308 498.458 152.248 498.808 152.212C499.158 152.176 499.438 152.163 499.649 152.173C499.859 152.184 500.06 152.259 500.251 152.4C500.689 152.741 500.969 153.508 501.093 154.702C501.472 155.097 501.74 155.359 501.898 155.487C502.246 155.741 502.587 155.85 502.921 155.816C503.286 155.762 503.705 155.228 504.179 154.214C504.637 153.201 504.835 152.392 504.772 151.787C504.711 151.199 504.563 150.699 504.327 150.289C504.106 149.862 503.83 149.448 503.499 149.048C503.184 148.646 502.837 148.248 502.459 147.853C502.094 147.44 501.68 146.936 501.216 146.341C500.767 145.728 500.231 145.14 499.61 144.577C499.005 144.012 498.27 143.598 497.406 143.333C497.29 143.297 497.15 143.271 496.988 143.256C496.811 143.258 496.64 143.236 496.474 143.188C496.062 143.086 495.841 142.9 495.813 142.63C495.784 142.343 495.874 142.125 496.083 141.974C496.291 141.808 496.567 141.675 496.91 141.575C497.252 141.459 497.636 141.363 498.063 141.287C498.489 141.21 498.805 141.154 499.01 141.116C499.214 141.063 499.356 141.032 499.435 141.024C499.515 141.016 499.611 141.014 499.724 141.018C499.853 141.021 499.982 141.024 500.111 141.026C500.256 141.027 500.42 141.059 500.603 141.12C500.785 141.166 501.034 141.317 501.35 141.574L502.265 142.492C502.844 143.108 503.374 143.721 503.855 144.33L505.585 146.588C505.837 146.852 506.137 147.263 506.485 147.822L506.628 147.807C506.677 147.657 506.801 147.073 507.002 146.055C507.202 145.037 507.42 143.575 507.657 141.669L507.596 141.313L506.248 141.573ZM513.518 150.013C513.311 150.035 513.19 149.87 513.153 149.52C513.143 149.425 513.15 149.336 513.174 149.253C513.197 149.17 513.281 149.121 513.424 149.106L515.214 148.921C515.205 148.52 515.203 148.029 515.207 147.45C515.21 146.854 515.207 146.203 515.198 145.496C515.176 143.729 515.091 142.137 514.944 140.721L514.344 134.92L512.91 135.286L509.233 138.224C509.217 138.226 509.205 138.267 509.198 138.348C509.204 138.412 509.191 138.445 509.16 138.449C508.985 138.467 508.825 138.403 508.681 138.257C508.538 138.111 508.457 137.95 508.438 137.775L509.603 133.408L512.387 133.964C512.847 134.061 513.515 134.065 514.391 133.974L516.224 133.736L518.542 133.52C519.704 133.4 520.64 133.126 521.352 132.698C521.489 132.62 521.602 132.544 521.691 132.47C521.762 132.382 521.842 132.302 521.931 132.228C522.093 132.083 522.285 131.998 522.508 131.975C522.731 131.952 522.879 131.985 522.952 132.074L524.919 135.224C524.928 135.304 524.86 135.431 524.718 135.607C524.589 135.765 524.524 135.836 524.523 135.82L521.632 134.937L519.572 134.379C519.381 134.398 519.227 134.463 519.109 134.571C519.008 134.678 518.94 134.878 518.906 135.171C518.828 135.662 518.878 136.767 519.056 138.485L519.575 144.898C519.783 146.903 519.996 148.023 520.213 148.258C520.286 148.347 520.37 148.379 520.464 148.353L521.741 148.1C521.948 148.079 522.124 148.076 522.271 148.093C522.398 148.08 522.47 148.153 522.487 148.312C522.529 148.726 522.449 148.96 522.245 149.013L520.775 149.262L513.518 150.013ZM530.07 148.299C529.863 148.321 529.742 148.156 529.705 147.806C529.696 147.711 529.702 147.622 529.726 147.539C529.75 147.456 529.833 147.407 529.976 147.392L531.767 147.207C531.757 146.806 531.755 146.315 531.759 145.736C531.762 145.14 531.759 144.489 531.75 143.782C531.728 142.015 531.643 140.423 531.497 139.007L530.896 133.206L529.462 133.572L525.785 136.51C525.769 136.512 525.757 136.553 525.75 136.634C525.756 136.698 525.744 136.731 525.712 136.735C525.537 136.753 525.377 136.689 525.233 136.543C525.09 136.397 525.009 136.236 524.991 136.061L526.155 131.694L528.939 132.25C529.399 132.347 530.067 132.351 530.943 132.26L532.776 132.022L535.094 131.806C536.256 131.686 537.193 131.412 537.904 130.984C538.041 130.906 538.154 130.83 538.243 130.756C538.314 130.668 538.394 130.588 538.483 130.514C538.645 130.369 538.837 130.284 539.06 130.261C539.283 130.238 539.431 130.271 539.505 130.36L541.471 133.51C541.48 133.59 541.412 133.717 541.27 133.893C541.141 134.051 541.076 134.122 541.075 134.106L538.184 133.223L536.124 132.665C535.933 132.684 535.779 132.749 535.661 132.857C535.56 132.964 535.492 133.164 535.458 133.457C535.38 133.948 535.43 135.053 535.608 136.771L536.127 143.184C536.335 145.189 536.548 146.309 536.765 146.544C536.839 146.633 536.922 146.665 537.016 146.639L538.293 146.386C538.5 146.365 538.676 146.362 538.823 146.379C538.95 146.366 539.022 146.439 539.039 146.598C539.081 147.012 539.001 147.246 538.798 147.299L537.327 147.548L530.07 148.299ZM557.226 143.436L557.203 142.98C557.195 142.901 557.187 142.821 557.178 142.741C557.116 142.137 557.013 141.689 556.87 141.398C556.458 140.524 555.772 139.96 554.813 139.705C554.58 139.633 554.353 139.616 554.132 139.655C553.713 139.795 553.255 139.963 552.761 140.159L552.043 140.45L551.915 140.608L552.661 145.019L553.401 144.942C553.688 144.913 553.96 144.9 554.218 144.906C554.474 144.896 554.614 145.002 554.637 145.224C554.683 145.67 554.181 145.947 553.13 146.056C552.096 146.163 551.031 146.209 549.936 146.194C548.858 146.193 547.77 146.249 546.672 146.363L545.934 146.463C545.717 146.389 545.598 146.249 545.577 146.042C545.554 145.819 545.626 145.667 545.795 145.585C545.962 145.487 546.164 145.418 546.401 145.378C546.654 145.335 546.9 145.302 547.138 145.277C547.393 145.251 547.588 145.19 547.723 145.096L547.653 144.186C547.216 139.969 546.603 135.995 545.815 132.264C545.796 132.234 545.764 132.165 545.721 132.057C545.678 131.949 545.646 131.88 545.627 131.849L545.553 131.833C545.235 131.866 544.745 132.415 544.083 133.481C543.918 133.755 543.755 134.046 543.594 134.352C543.379 134.76 543.306 135.299 543.375 135.967C543.384 136.208 543.398 136.415 543.416 136.59C543.455 136.972 543.494 137.266 543.531 137.471C543.597 137.802 543.692 138.09 543.813 138.335C544.022 138.796 544.457 139.265 545.118 139.744C545.139 139.951 544.95 140.147 544.551 140.333C543.946 140.396 543.415 139.928 542.958 138.93C542.628 138.224 542.418 137.442 542.329 136.582C542.233 135.659 542.36 134.705 542.708 133.72C543.041 132.736 543.637 131.895 544.498 131.194C545.463 130.579 546.678 130.196 548.143 130.045C550.418 129.809 552.276 129.962 553.716 130.505C554.586 130.833 555.34 131.358 555.978 132.08C556.63 132.785 557.023 133.782 557.156 135.071C557.161 135.119 557.162 135.199 557.157 135.312L557.139 135.604C557.124 135.927 557.115 136.073 557.112 136.041L555.748 138.715L555.765 138.882C557.318 139.269 558.23 140.783 558.504 143.425L558.567 144.263C558.9 144.534 559.091 144.667 559.139 144.662C559.24 144.555 559.332 144.433 559.414 144.295C559.513 144.157 559.62 144.033 559.738 143.924C560.108 143.612 560.325 143.453 560.388 143.447C560.563 143.428 560.683 143.424 560.749 143.433C560.828 143.425 560.877 143.509 560.895 143.684C560.912 143.843 560.893 144.046 560.838 144.293C560.783 144.54 560.695 144.774 560.573 144.996C560.288 145.508 559.915 145.788 559.453 145.836C559.183 145.864 558.955 145.839 558.77 145.762C558.601 145.683 558.362 145.547 558.052 145.353C557.759 145.159 557.555 144.898 557.44 144.572C557.341 144.229 557.269 143.85 557.226 143.436ZM550.283 130.909L550.354 131.36C550.578 132.591 550.78 133.841 550.959 135.109C551.139 136.378 551.396 137.622 551.732 138.842C551.791 138.948 551.892 138.994 552.036 138.979C554.359 138.739 555.731 137.543 556.152 135.392C556.01 134.023 555.499 132.967 554.617 132.221C554.301 131.965 553.993 131.787 553.694 131.69C553.394 131.592 553.095 131.502 552.797 131.421C552.497 131.323 552.199 131.233 551.901 131.151C551.204 130.95 550.824 130.853 550.76 130.859L550.283 130.909ZM562.341 144.813C562.15 144.833 562.039 144.691 562.008 144.389C561.976 144.086 562.112 143.92 562.414 143.888L563.787 143.867L562.957 135.846L562.203 136.02C561.884 136.053 561.709 135.918 561.678 135.616C561.667 135.505 561.824 135.392 562.15 135.278C562.49 135.146 562.7 135.076 562.78 135.068C562.48 132.171 561.989 130.308 561.308 129.478C561.124 129.255 560.921 129.156 560.698 129.179L560.011 129.298C559.676 129.333 559.494 129.199 559.462 128.897C559.441 128.69 559.537 128.527 559.75 128.408C560.461 128.287 561.119 128.194 561.723 128.132L563.824 127.914C567.739 127.509 570.67 127.849 572.616 128.934C573.674 129.516 574.268 130.444 574.4 131.717C574.499 132.672 574.319 133.575 573.86 134.427C573.658 134.802 573.35 135.171 572.938 135.536C572.523 135.884 572.039 136.176 571.484 136.41C570.944 136.627 570.406 136.795 569.872 136.915C569.211 137.064 568.372 137.191 567.353 137.296L567.947 143.026L568.263 143.283C568.357 143.257 568.499 143.234 568.69 143.214L569.311 143.15C569.947 143.084 570.356 143.066 570.536 143.096C570.799 143.149 571.064 143.306 571.333 143.568L571.054 143.91L562.341 144.813ZM568.648 136.053L569.601 135.93C570.439 135.795 570.975 135.297 571.207 134.436C571.344 133.891 571.375 133.261 571.301 132.545C571.225 131.813 571.136 131.267 571.035 130.907C570.949 130.546 570.811 130.223 570.621 129.937C570.107 129.17 569.138 128.739 567.712 128.646C566.951 128.596 566.316 128.597 565.807 128.65C565.82 128.777 565.833 128.904 565.846 129.032C566.083 131.324 566.417 133.227 566.848 134.743C566.996 135.242 567.12 135.583 567.219 135.766C567.334 135.947 567.482 136.053 567.662 136.082C567.842 136.112 568.171 136.102 568.648 136.053ZM589.485 142.533L588.297 142.704L587.843 142.751C587.382 142.799 587.022 142.82 586.764 142.815C586.165 142.78 585.699 142.78 585.365 142.815L583.359 143.022C583.089 143.05 582.886 143.031 582.75 142.965C582.63 142.897 582.549 142.736 582.507 142.483C582.465 142.23 582.554 142.076 582.773 142.021C582.993 141.966 583.239 141.941 583.513 141.945C583.785 141.933 584.049 141.913 584.303 141.887C584.558 141.861 584.718 141.772 584.782 141.62L584.484 138.273L584.265 135.69C584.247 135.515 584.226 135.396 584.204 135.334C584.112 135.376 584.01 135.403 583.899 135.414C583.787 135.426 583.65 135.344 583.487 135.167C583.322 134.975 583.232 134.8 583.215 134.641C583.199 134.481 583.236 134.373 583.326 134.315C583.415 134.242 583.514 134.183 583.622 134.14C583.73 134.097 583.83 134.054 583.922 134.012C584.014 133.971 584.056 133.91 584.048 133.83C583.951 133.358 583.866 132.844 583.792 132.289C583.733 131.716 583.665 131.144 583.59 130.572C583.513 129.985 583.437 129.406 583.362 128.835C583.303 128.262 583.224 127.731 583.125 127.243C583.002 127.143 582.924 127.094 582.893 127.098L581.985 127.192C581.778 127.213 581.572 127.234 581.365 127.256C581.156 127.261 580.99 127.206 580.865 127.09C580.739 126.959 580.669 126.829 580.656 126.702C580.643 126.575 580.633 126.479 580.626 126.415C580.636 126.35 580.685 126.289 580.776 126.231L583.127 125.867C583.417 125.869 583.697 125.856 583.967 125.828L588.207 125.293L588.541 125.258L589.57 125.176L589.904 125.141C590.021 125.177 590.094 125.339 590.123 125.625C590.151 125.896 590.092 126.095 589.944 126.223C589.795 126.335 589.505 126.413 589.075 126.457L587.925 126.528C588.083 128.056 588.205 129.62 588.29 131.22C588.391 132.818 588.543 134.596 588.746 136.553C588.947 138.495 589.203 140.117 589.515 141.42L591.151 141.371C591.485 141.336 591.679 141.501 591.733 141.866C591.684 142.016 591.589 142.114 591.45 142.16L589.485 142.533ZM598.063 140.776L594.214 141.126C594.023 141.146 593.896 141.079 593.832 140.924C593.748 140.74 593.697 140.56 593.679 140.385C593.664 140.242 593.709 140.133 593.814 140.058C593.919 139.982 594.041 139.914 594.179 139.851C594.333 139.787 594.479 139.715 594.615 139.637C594.768 139.557 594.866 139.418 594.91 139.22C595.022 137.037 594.961 134.044 594.728 130.239C594.656 129.233 594.604 128.499 594.572 128.036L594.471 127.057C594.451 126.866 594.415 126.677 594.364 126.489C593.393 126.589 592.825 126.544 592.66 126.352C592.459 126.115 592.338 125.806 592.299 125.424C594.001 125.087 595.621 124.806 597.158 124.583C598.694 124.344 599.605 124.209 599.891 124.179C601.005 124.064 601.591 124.204 601.648 124.601C601.668 124.792 601.519 124.992 601.203 125.202C600.886 125.395 600.734 125.564 600.749 125.707C600.762 125.834 600.893 126.086 601.141 126.463C601.403 126.822 601.702 127.217 602.036 127.649C602.794 128.6 603.398 129.309 603.849 129.777C603.877 129.742 603.939 129.72 604.035 129.71C604.512 129.66 604.879 129.478 605.136 129.162C605.194 129.252 605.233 129.393 605.252 129.584C605.27 129.759 605.253 129.897 605.199 130C605.161 130.1 605.099 130.203 605.014 130.308C604.817 130.586 604.731 130.836 604.754 131.059C604.775 131.266 604.802 131.368 604.833 131.364C604.917 131.549 605.132 131.913 605.477 132.456L606.344 133.838C606.576 134.216 606.806 134.57 607.033 134.901C607.261 135.231 607.452 135.525 607.607 135.782C607.779 136.038 607.892 136.203 607.948 136.278C608.025 135.626 607.997 134.648 607.861 133.343C607.725 132.022 607.584 130.895 607.439 129.961C607.308 129.009 607.171 128.155 607.029 127.397C606.72 125.66 606.51 124.797 606.399 124.808L604.174 125.232C604.126 124.77 604.173 124.444 604.314 124.252C604.455 124.061 604.588 123.95 604.714 123.921L605.234 123.819C605.422 123.767 605.618 123.715 605.821 123.662C606.044 123.639 606.241 123.602 606.413 123.552C607.04 123.391 607.64 123.28 608.213 123.221C609.072 123.132 609.533 123.157 609.596 123.295L609.7 123.839C609.543 123.872 609.341 123.941 609.094 124.047C608.862 124.135 608.66 124.204 608.489 124.254C608.444 124.291 608.34 124.374 608.177 124.504C608.011 124.617 607.907 124.692 607.862 124.729C607.859 124.858 607.866 125.075 607.881 125.379C607.911 125.665 607.928 125.985 607.932 126.339C607.951 127.141 607.973 127.661 607.997 127.9L608.037 128.282C608.487 132.16 608.812 134.676 609.012 135.83C609.212 136.983 609.321 137.648 609.339 137.823C609.385 138.896 607.777 139.673 604.513 140.156C604.195 140.189 603.951 140.158 603.78 140.063C603.623 139.951 603.53 139.751 603.501 139.465C603.469 139.162 603.466 138.978 603.492 138.911L600.036 134.202L598.521 134.479C598.514 134.416 598.507 134.344 598.498 134.264C598.504 134.167 598.531 134.036 598.578 133.87C598.64 133.687 598.744 133.531 598.892 133.403C599.039 133.275 599.099 133.076 599.071 132.806C599.042 132.519 598.899 132.148 598.642 131.692C598.37 131.238 598.063 130.755 597.72 130.243C597.002 129.208 596.305 128.379 595.629 127.757C595.563 127.893 595.543 128.096 595.571 128.367L595.616 128.796C595.679 129.562 595.741 130.705 595.802 132.227C595.915 135.175 596.004 136.976 596.072 137.628C596.202 138.885 596.321 139.565 596.428 139.666C596.5 139.739 596.631 139.766 596.822 139.746C597.013 139.726 597.213 139.714 597.421 139.708C597.646 139.701 597.842 139.729 598.009 139.792C598.193 139.854 598.299 140.028 598.329 140.314C598.358 140.601 598.27 140.754 598.063 140.776ZM619.462 138.463L620.635 138.366C622.067 138.218 623.18 137.861 623.974 137.296C624.678 136.789 625.06 136.291 625.122 135.802C625.195 135.264 625.295 134.908 625.422 134.734C625.549 134.56 625.684 134.465 625.827 134.451C625.97 134.436 626.102 134.47 626.224 134.554C626.359 134.621 626.439 134.773 626.464 135.012C626.487 135.235 626.453 135.528 626.362 135.891C626.269 136.238 626.128 136.583 625.938 136.924C625.546 137.64 625.054 138.174 624.463 138.525C623.434 139.146 622.187 139.532 620.723 139.684C618.877 139.875 617.312 139.523 616.029 138.626C614.345 137.433 613.248 135.303 612.737 132.235L611.543 132.359C611.416 132.372 611.343 132.283 611.323 132.092C611.303 131.901 611.328 131.754 611.398 131.65C611.467 131.546 611.555 131.465 611.662 131.405C611.767 131.33 611.881 131.27 612.005 131.225C612.145 131.178 612.269 131.133 612.377 131.09C612.334 129.582 612.488 128.199 612.84 126.94C613.122 125.93 613.429 125.247 613.762 124.89C614.109 124.517 614.54 124.174 615.055 123.864C615.552 123.539 616.078 123.259 616.633 123.025C617.681 122.578 618.714 122.303 619.732 122.197L622.494 122.538C622.572 122.353 622.7 122.195 622.879 122.064C623.075 121.931 623.308 121.851 623.578 121.823C624.008 121.778 624.262 122.13 624.339 122.878L623.93 126.154C623.933 126.186 623.803 126.247 623.539 126.339C623.221 126.372 622.995 126.291 622.863 126.095C622.061 124.409 621.124 123.525 620.054 123.443C619.779 123.423 619.538 123.424 619.331 123.445C618.344 123.547 617.889 123.964 617.964 124.696C617.974 124.792 617.99 124.871 618.013 124.933L618.029 124.859L618.074 125.288L618.331 127.771C618.694 131.272 618.903 133.76 618.959 135.234C619.014 136.692 619.06 137.604 619.098 137.97C619.134 138.32 619.255 138.485 619.462 138.463ZM634.634 137.327C634.443 137.346 634.332 137.205 634.301 136.903C634.269 136.6 634.405 136.434 634.707 136.402L636.08 136.381L635.25 128.36L634.496 128.534C634.177 128.567 634.003 128.432 633.971 128.13C633.96 128.019 634.117 127.906 634.443 127.792C634.783 127.66 634.993 127.59 635.073 127.582C634.773 124.685 634.282 122.822 633.601 121.991C633.417 121.769 633.214 121.67 632.991 121.693L632.304 121.812C631.969 121.847 631.787 121.713 631.755 121.411C631.734 121.204 631.83 121.041 632.043 120.922C632.754 120.8 633.412 120.708 634.017 120.646L636.117 120.428C640.032 120.023 642.963 120.363 644.909 121.448C645.967 122.03 646.561 122.958 646.693 124.231C646.792 125.186 646.612 126.089 646.154 126.941C645.951 127.316 645.644 127.685 645.231 128.05C644.817 128.398 644.332 128.69 643.777 128.924C643.237 129.141 642.699 129.309 642.165 129.429C641.504 129.578 640.665 129.705 639.647 129.81L640.24 135.54L640.556 135.797C640.65 135.771 640.792 135.748 640.983 135.728L641.604 135.664C642.24 135.598 642.649 135.58 642.829 135.609C643.092 135.663 643.357 135.82 643.626 136.082L643.347 136.424L634.634 137.327ZM640.941 128.566L641.894 128.444C642.732 128.309 643.268 127.811 643.5 126.95C643.637 126.405 643.668 125.775 643.594 125.059C643.518 124.326 643.43 123.781 643.328 123.421C643.242 123.06 643.104 122.737 642.914 122.451C642.4 121.684 641.431 121.253 640.005 121.159C639.244 121.11 638.609 121.111 638.1 121.164C638.113 121.291 638.126 121.418 638.139 121.546C638.377 123.837 638.71 125.741 639.141 127.257C639.289 127.756 639.413 128.097 639.512 128.28C639.627 128.461 639.775 128.567 639.955 128.596C640.135 128.626 640.464 128.616 640.941 128.566ZM654.503 135.173L650.104 135.797C649.737 135.835 649.422 135.819 649.158 135.75C648.909 135.68 648.763 135.437 648.72 135.023C648.717 134.831 648.919 134.689 649.328 134.599C649.785 134.503 650.056 134.403 650.141 134.297C650.452 133.879 650.518 132.811 650.34 131.092C650.217 129.898 650.093 129.018 649.97 128.452C649.847 127.885 649.775 127.579 649.754 127.533C649.664 127.285 649.506 127.149 649.278 127.124C649.064 127.082 648.837 127.057 648.595 127.05C648.352 127.043 648.132 127.009 647.933 126.95C647.748 126.872 647.644 126.722 647.621 126.499C647.596 126.261 647.638 126.12 647.746 126.076C648.062 126.027 648.589 125.909 649.325 125.72L651.067 125.298C651.478 125.223 651.855 125.136 652.198 125.036C652.917 124.833 653.316 124.727 653.396 124.719C653.762 124.681 653.971 124.909 654.022 125.402C654.096 126.118 654.071 126.732 653.947 127.244C654.136 127.047 654.324 126.77 654.512 126.413C654.701 126.056 654.905 125.697 655.125 125.336C655.676 124.443 656.174 123.973 656.62 123.927C657.065 123.881 657.465 123.936 657.819 124.092C658.173 124.249 658.485 124.466 658.755 124.743C659.332 125.343 659.66 126.025 659.739 126.789C659.833 127.857 659.522 128.653 658.804 129.178C658.534 129.367 658.216 129.48 657.85 129.518C657.5 129.554 657.218 129.471 657.004 129.268C656.79 129.065 656.602 128.811 656.442 128.505C656.298 128.199 656.16 127.875 656.028 127.535C655.895 127.179 655.757 126.863 655.616 126.588C654.452 127.931 653.883 129.35 653.909 130.843C653.922 131.276 653.943 131.708 653.971 132.139L654.156 133.689C654.177 133.895 654.255 134.024 654.389 134.075C654.523 134.125 654.672 134.166 654.836 134.197C654.998 134.213 655.147 134.245 655.28 134.296C655.413 134.331 655.489 134.443 655.508 134.634C655.528 134.825 655.448 134.986 655.269 135.117L654.503 135.173ZM661.972 132.228C661.606 131.799 661.372 131.333 661.272 130.828C661.172 130.324 661.087 129.738 661.017 129.069C660.948 128.401 661.112 127.732 661.51 127.064C661.905 126.379 662.438 125.777 663.108 125.258C664.505 124.148 666.063 123.504 667.782 123.326C669.262 123.173 670.588 123.783 671.76 125.158C672.271 125.748 672.678 126.414 672.98 127.155C673.296 127.878 673.495 128.63 673.575 129.41C673.656 130.189 673.496 130.97 673.094 131.752C672.56 132.804 671.718 133.535 670.57 133.943C670.198 134.078 669.714 134.217 669.117 134.359C668.538 134.516 668.193 134.6 668.082 134.611C666.904 134.733 665.808 134.629 664.792 134.3C663.777 133.971 662.837 133.28 661.972 132.228ZM665.685 129.406C665.723 129.772 665.78 130.169 665.856 130.595C665.949 131.02 666.071 131.425 666.224 131.812C666.595 132.754 667.035 133.199 667.544 133.147C668.101 133.089 668.511 132.853 668.774 132.44C669.037 132.027 669.212 131.542 669.299 130.986C669.414 130.235 669.391 129.079 669.229 127.519C669.16 126.851 669.021 126.278 668.81 125.801C668.343 125.013 668.008 124.581 667.807 124.506C667.792 124.507 667.776 124.509 667.76 124.511C666.789 124.611 666.155 125.248 665.858 126.421C665.626 127.281 665.568 128.276 665.685 129.406ZM683.219 118.132C682.932 118.162 682.676 118.253 682.451 118.405C682.241 118.555 682.009 118.644 681.754 118.67C681.5 118.696 681.319 118.659 681.212 118.557C681.121 118.454 681.068 118.331 681.053 118.188C681.038 118.044 681.079 117.895 681.176 117.741C681.272 117.586 681.383 117.494 681.509 117.465C681.633 117.42 681.904 117.319 682.322 117.163C682.74 117.008 683.189 116.832 683.667 116.638L685.01 116.089C685.446 115.947 685.694 115.857 685.754 115.819C686 115.713 686.182 115.606 686.3 115.497C686.403 115.406 686.485 115.341 686.545 115.303C686.682 115.224 686.869 115.173 687.108 115.148C687.347 115.123 687.512 115.162 687.603 115.265C687.692 115.353 687.749 115.516 687.774 115.754C687.797 115.977 687.761 116.166 687.664 116.321C687.567 116.476 687.52 116.794 687.522 117.277L687.488 119.283L687.421 121.895C687.382 123.846 687.376 125.27 687.405 126.168C687.449 127.064 687.468 127.633 687.461 127.875L687.437 128.577C687.417 129.159 687.425 129.624 687.461 129.974C687.496 130.309 687.559 130.608 687.651 130.872C688.109 130.792 688.494 130.623 688.805 130.366C689.116 130.109 689.414 129.804 689.699 129.453C690.085 129.445 690.295 129.616 690.332 129.967C690.366 130.301 690.285 130.599 690.086 130.861C689.887 131.106 689.635 131.318 689.332 131.494C688.755 131.827 688.22 132.019 687.726 132.07C687.249 132.12 686.876 132.086 686.606 131.969C686.337 131.852 686.079 131.694 685.833 131.494C685.429 131.166 685.044 130.707 684.677 130.118C684.152 130.944 683.453 131.652 682.581 132.241C681.71 132.846 680.814 133.196 679.891 133.292C678.983 133.386 678.252 133.317 677.698 133.085C677.125 132.838 676.655 132.493 676.287 132.048C675.587 131.188 675.151 129.93 674.98 128.275C674.906 127.559 675.05 126.86 675.414 126.179C675.776 125.482 676.227 124.864 676.767 124.326C677.32 123.77 677.885 123.317 678.46 122.968C679.051 122.617 679.601 122.416 680.11 122.363C680.619 122.31 681.078 122.311 681.486 122.365C681.892 122.404 682.22 122.466 682.47 122.553C682.736 122.638 682.947 122.729 683.102 122.825C683.256 122.922 683.4 122.987 683.532 123.022C683.711 122.569 683.79 122.095 683.771 121.598C683.766 121.084 683.716 120.373 683.622 119.466C683.528 118.559 683.394 118.114 683.219 118.132ZM679.102 128.475C679.19 129.013 679.34 129.528 679.552 130.021C680.197 130.968 680.808 131.508 681.385 131.641C681.4 131.639 681.416 131.638 681.432 131.636C682.244 131.552 682.87 131.077 683.311 130.211C683.675 129.53 683.914 128.653 684.028 127.579C684.112 126.831 684.129 126.226 684.082 125.764C684.034 125.302 683.933 124.951 683.779 124.71C683.626 124.468 683.426 124.247 683.18 124.048C682.618 123.591 682.082 123.389 681.573 123.442C681.557 123.444 681.549 123.445 681.549 123.445C681.026 123.515 680.598 123.656 680.266 123.867C679.932 124.062 679.654 124.324 679.43 124.653C679.205 124.966 679.042 125.329 678.94 125.741C678.838 126.154 678.809 126.575 678.854 127.005C678.898 127.435 678.981 127.925 679.102 128.475ZM703.633 130.688C702.073 130.85 700.773 130.019 699.732 128.197C699.669 128.831 699.158 129.487 698.198 130.165C697.314 130.788 696.481 131.139 695.702 131.22C694.699 131.324 693.778 130.969 692.937 130.155C692.204 129.443 691.789 128.617 691.692 127.678L691.279 123.692C691.259 123.501 691.196 123.354 691.088 123.253C690.98 123.136 690.864 123.027 690.741 122.927C690.616 122.811 690.5 122.695 690.391 122.577C690.281 122.444 690.214 122.266 690.191 122.043C690.143 121.581 690.899 121.27 692.459 121.108L693.39 121.012C693.979 120.951 694.386 120.925 694.612 120.934L695.528 121.153C695.587 121.725 695.625 122.558 695.642 123.65C695.665 125.739 695.697 127.062 695.739 127.621L695.766 127.884C695.83 128.344 695.901 128.642 695.98 128.779C696.17 129.064 696.456 129.188 696.838 129.148C697.109 129.12 697.347 129.015 697.554 128.833L698.108 128.365C698.135 128.314 698.237 128.135 698.415 127.827C698.761 127.292 698.931 126.993 698.925 126.929L698.297 120.866C698.246 120.372 699.094 120.019 700.841 119.806L702.059 119.68C702.393 119.645 702.62 119.662 702.74 119.73C702.874 119.781 702.95 119.893 702.968 120.068C702.984 120.228 702.988 120.34 702.978 120.405C702.967 120.455 702.924 120.499 702.848 120.539C702.836 120.894 702.806 121.227 702.758 121.538L702.656 122.417C702.579 123.068 702.572 123.705 702.636 124.325C702.892 126.792 703.513 128.288 704.501 128.813C704.84 128.987 705.126 129.102 705.357 129.159C705.604 129.214 705.728 129.249 705.73 129.265C705.754 129.504 705.511 129.794 705 130.137C704.311 130.481 703.872 130.664 703.681 130.683C703.681 130.683 703.673 130.684 703.657 130.686L703.633 130.688ZM715.785 118.09C715.992 118.068 716.191 118.12 716.38 118.245C716.585 118.353 716.688 118.414 716.689 118.43L716.971 121.152C716.987 121.311 716.906 121.456 716.727 121.587C716.547 121.719 716.37 121.793 716.195 121.811C716.036 121.828 715.825 121.737 715.563 121.539C715.316 121.323 715.018 121.089 714.67 120.835C713.751 120.19 712.838 119.915 711.93 120.009C711.596 120.044 711.312 120.25 711.078 120.628C710.859 121.005 710.691 121.4 710.573 121.814C710.455 122.229 710.384 122.63 710.36 123.019C710.321 123.57 710.334 124.163 710.4 124.8C710.389 124.849 710.385 124.89 710.388 124.922C710.449 125.511 710.559 126.022 710.716 126.456C710.89 126.889 711.092 127.286 711.322 127.648C712.003 128.318 712.58 128.692 713.055 128.772C714.169 128.656 715.177 128.061 716.079 126.987C716.163 126.865 716.222 126.739 716.257 126.606C716.292 126.474 716.334 126.341 716.385 126.207C716.5 125.922 716.709 125.763 717.011 125.732C717.312 125.685 717.518 125.736 717.63 125.885C717.742 126.034 717.806 126.189 717.823 126.348C717.709 126.649 717.503 126.984 717.203 127.353C716.919 127.72 716.615 128.041 716.289 128.316C715.98 128.589 715.641 128.818 715.274 129C714.616 129.326 713.794 129.54 712.807 129.642C711.837 129.742 710.96 129.745 710.178 129.649C709.41 129.535 708.726 129.3 708.127 128.944C706.839 128.161 706.091 126.758 705.881 124.737C705.752 123.335 706.132 122.105 707.019 121.048C708.037 119.849 709.468 119.146 711.313 118.939C711.79 118.889 712.233 118.892 712.641 118.946C713.063 118.983 713.568 118.971 714.157 118.91C714.746 118.849 715.289 118.575 715.785 118.09ZM721.106 116.839L720.822 115.493L720.798 115.496C720.718 115.504 720.429 115.582 719.929 115.73C719.754 115.748 719.581 115.702 719.408 115.591C719.236 115.48 719.14 115.329 719.12 115.138C719.099 114.932 719.154 114.765 719.285 114.639C719.431 114.495 719.62 114.371 719.85 114.267C720.111 114.143 720.68 113.972 721.558 113.752L721.99 113.731C722.242 113.673 722.487 113.559 722.727 113.39L723.404 112.934C723.883 112.594 724.29 112.407 724.624 112.373C724.975 112.337 725.183 112.411 725.251 112.597C725.333 112.766 725.387 112.978 725.413 113.232L725.393 113.5C725.326 114.568 725.311 115.278 725.348 115.628C725.384 115.978 725.412 116.248 725.432 116.439L725.539 117.007C725.558 117.198 725.577 117.373 725.593 117.533C725.625 117.69 725.645 117.801 725.652 117.864C726.018 117.826 726.372 117.757 726.716 117.658C727.059 117.558 727.422 117.488 727.804 117.448C728.202 117.407 728.417 117.546 728.45 117.864C728.472 118.071 728.441 118.235 728.357 118.356C727.911 118.402 727.374 118.498 726.746 118.644C726.117 118.789 725.772 118.873 725.71 118.896C725.591 118.988 725.508 119.431 725.462 120.224C725.415 121.017 725.397 121.542 725.407 121.798C725.432 122.037 725.441 122.277 725.434 122.519C725.427 122.761 725.413 123.012 725.391 123.272C725.341 123.872 725.351 124.515 725.422 125.199C725.455 125.517 725.605 125.799 725.871 126.045C726.138 126.291 726.439 126.397 726.773 126.362L727.675 126.22C727.898 126.197 728.1 126.208 728.282 126.254C728.479 126.298 728.59 126.439 728.615 126.678C728.617 126.694 728.61 126.711 728.596 126.728L728.599 126.752C728.162 127.505 726.957 127.984 724.983 128.188C723.694 128.321 722.716 127.964 722.049 127.116C721.55 126.493 721.241 125.6 721.121 124.438C721.101 124.247 721.081 122.97 721.062 120.608L720.905 119.562L717.969 119.866C717.857 119.878 717.77 119.814 717.708 119.676C717.629 119.539 717.586 119.431 717.578 119.352C717.553 119.113 717.647 118.934 717.86 118.816C719.868 118.479 720.948 118.263 721.098 118.167C721.135 117.584 721.137 117.141 721.106 116.839Z" fill="white"/>
</svg>
