<svg width="44" height="43" viewBox="0 0 44 43" fill="none" xmlns="http://www.w3.org/2000/svg">
<path d="M40.8417 22.0161C40.8417 20.6287 40.7172 19.2946 40.4859 18.0139H22.0576V25.5826H32.5881C32.1345 28.0285 30.7559 30.1008 28.6836 31.4882V36.3977H35.0072C38.7071 32.9913 40.8417 27.9751 40.8417 22.0161Z" fill="#4285F4"/>
<path d="M22.0576 41.1382C27.3406 41.1382 31.7698 39.3861 35.0072 36.3977L28.6836 31.4882C26.9315 32.6622 24.6902 33.356 22.0576 33.356C16.9613 33.356 12.6477 29.914 11.1091 25.2891H4.57202V30.3587C7.79164 36.7535 14.4088 41.1382 22.0576 41.1382Z" fill="#34A853"/>
<path d="M11.1091 25.2891C10.7178 24.1151 10.4954 22.8611 10.4954 21.5715C10.4954 20.2818 10.7178 19.0278 11.1091 17.8538V12.7842H4.57204C3.20236 15.5108 2.48964 18.5201 2.49085 21.5715C2.49085 24.7288 3.24683 27.7172 4.57204 30.3587L11.1091 25.2891Z" fill="#FBBC05"/>
<path d="M22.0576 9.78695C24.9303 9.78695 27.5096 10.7742 29.5374 12.7131L35.1495 7.10098C31.7609 3.94362 27.3317 2.00473 22.0576 2.00473C14.4088 2.00473 7.79164 6.38946 4.57202 12.7842L11.1091 17.8538C12.6477 13.2289 16.9613 9.78695 22.0576 9.78695Z" fill="#EA4335"/>
</svg>
