<svg width="453" height="30" viewBox="0 0 453 30" fill="none" xmlns="http://www.w3.org/2000/svg">
<path d="M222.358 22.9469C221.254 23.3789 220.094 23.5949 218.878 23.5949C217.678 23.5949 216.614 23.3869 215.686 22.9709C214.758 22.5549 213.942 22.0109 213.238 21.3389C212.55 20.6509 212.006 19.8669 211.606 18.9869C211.222 18.1069 211.03 17.2669 211.03 16.4669C211.03 15.6509 211.094 14.8669 211.222 14.1149C211.35 13.3469 211.542 12.5949 211.798 11.8589C212.726 9.23493 214.262 7.50693 216.406 6.67492C217.238 6.35492 218.15 6.19492 219.142 6.19492C222.246 6.19492 224.542 7.07492 226.03 8.83493C227.214 10.2429 227.806 12.0269 227.806 14.1869C227.79 17.0829 226.934 19.3789 225.238 21.0749C224.438 21.8749 223.478 22.4989 222.358 22.9469ZM215.902 14.3549C215.854 14.9629 215.83 15.5229 215.83 16.0349C215.83 16.5309 215.894 17.0589 216.022 17.6189C216.15 18.1949 216.31 18.7709 216.502 19.3469C216.902 20.4829 217.454 21.5629 218.158 22.5869C218.206 22.7309 218.43 22.8029 218.83 22.8029C219.086 22.8029 219.414 22.7709 219.814 22.7069C220.998 22.5309 221.718 22.0029 221.974 21.1229C222.15 20.4509 222.318 19.8829 222.478 19.4189C222.654 18.9389 222.806 18.4909 222.934 18.0749C223.222 17.1469 223.366 16.3469 223.366 15.6749C223.366 14.9869 223.342 14.3789 223.294 13.8509C223.246 13.3229 223.166 12.7709 223.054 12.1949C222.942 11.6029 222.79 11.0109 222.598 10.4189C222.438 9.84292 222.214 9.31492 221.926 8.83493C221.302 7.77893 220.542 7.24293 219.646 7.22692C218.718 7.24293 217.934 7.79493 217.294 8.88292C216.558 10.1309 216.094 11.9549 215.902 14.3549ZM243.533 21.2909L243.557 20.8349C243.557 20.7549 243.557 20.6749 243.557 20.5949C243.557 19.9869 243.501 19.5309 243.389 19.2269C243.069 18.3149 242.445 17.6829 241.517 17.3309C241.293 17.2349 241.069 17.1949 240.845 17.2109C240.413 17.3069 239.941 17.4269 239.429 17.5709L238.685 17.7869L238.541 17.9309L238.829 22.3949H239.573C239.861 22.3949 240.133 22.4109 240.389 22.4429C240.645 22.4589 240.773 22.5789 240.773 22.8029C240.773 23.2509 240.245 23.4749 239.189 23.4749C238.149 23.4749 237.085 23.4109 235.997 23.2829C234.925 23.1709 233.837 23.1149 232.733 23.1149L231.989 23.1389C231.781 23.0429 231.677 22.8909 231.677 22.6829C231.677 22.4589 231.765 22.3149 231.941 22.2509C232.117 22.1709 232.325 22.1229 232.565 22.1069C232.821 22.0909 233.069 22.0829 233.309 22.0829C233.565 22.0829 233.765 22.0429 233.909 21.9629L233.933 21.0509C233.933 16.8109 233.733 12.7949 233.333 9.00292C233.317 8.97092 233.293 8.89893 233.261 8.78693C233.229 8.67493 233.205 8.60293 233.189 8.57093L233.117 8.54692C232.797 8.54692 232.253 9.04292 231.485 10.0349C231.293 10.2909 231.101 10.5629 230.909 10.8509C230.653 11.2349 230.525 11.7629 230.525 12.4349C230.509 12.6749 230.501 12.8829 230.501 13.0589C230.501 13.4429 230.509 13.7389 230.525 13.9469C230.557 14.2829 230.621 14.5789 230.717 14.8349C230.877 15.3149 231.261 15.8269 231.869 16.3709C231.869 16.5789 231.661 16.7549 231.245 16.8989C230.637 16.8989 230.157 16.3789 229.805 15.3389C229.549 14.6029 229.421 13.8029 229.421 12.9389C229.421 12.0109 229.645 11.0749 230.093 10.1309C230.525 9.18693 231.205 8.41093 232.133 7.80293C233.157 7.29093 234.405 7.03493 235.877 7.03493C238.165 7.03493 239.997 7.37893 241.373 8.06693C242.205 8.48293 242.901 9.08293 243.461 9.86692C244.037 10.6349 244.325 11.6669 244.325 12.9629C244.325 13.0109 244.317 13.0909 244.301 13.2029L244.253 13.4909C244.205 13.8109 244.181 13.9549 244.181 13.9229L242.549 16.4429V16.6109C244.053 17.1549 244.805 18.7549 244.805 21.4109L244.781 22.2509C245.085 22.5549 245.261 22.7069 245.309 22.7069C245.421 22.6109 245.525 22.4989 245.621 22.3709C245.733 22.2429 245.853 22.1309 245.981 22.0349C246.381 21.7629 246.613 21.6269 246.677 21.6269C246.853 21.6269 246.973 21.6349 247.037 21.6509C247.117 21.6509 247.157 21.7389 247.157 21.9149C247.157 22.0749 247.117 22.2749 247.037 22.5149C246.957 22.7549 246.845 22.9789 246.701 23.1869C246.365 23.6669 245.965 23.9069 245.501 23.9069C245.229 23.9069 245.005 23.8589 244.829 23.7629C244.669 23.6669 244.445 23.5069 244.157 23.2829C243.885 23.0589 243.709 22.7789 243.629 22.4429C243.565 22.0909 243.533 21.7069 243.533 21.2909ZM237.917 8.11492L237.941 8.57093C238.037 9.81892 238.109 11.0829 238.157 12.3629C238.205 13.6429 238.333 14.9069 238.541 16.1549C238.589 16.2669 238.685 16.3229 238.829 16.3229C241.165 16.3229 242.653 15.2749 243.293 13.1789C243.293 11.8029 242.893 10.6989 242.093 9.86692C241.805 9.57892 241.517 9.37092 241.229 9.24293C240.941 9.11493 240.653 8.99493 240.365 8.88292C240.077 8.75493 239.789 8.63493 239.501 8.52292C238.829 8.25092 238.461 8.11492 238.397 8.11492H237.917Z" fill="white"/>
<path d="M264.965 14.3989C264.137 14.3945 263.461 15.0625 263.457 15.8909C263.453 16.7194 264.121 17.3945 264.949 17.3989L264.965 14.3989ZM452.957 16.8989L438.003 8.15901L437.911 25.4793L452.957 16.8989ZM264.949 17.3989L439.449 18.3271L439.465 15.3271L264.965 14.3989L264.949 17.3989Z" fill="white"/>
<path d="M0.957031 14.8989L15.9108 23.6388L16.0029 6.31858L0.957031 14.8989ZM188.949 17.3989C189.777 17.4033 190.453 16.7353 190.457 15.9069C190.461 15.0785 189.793 14.4034 188.965 14.3989L188.949 17.3989ZM14.4489 16.4707L188.949 17.3989L188.965 14.3989L14.4648 13.4708L14.4489 16.4707Z" fill="white"/>
</svg>
