<svg width="37" height="49" viewBox="0 0 37 49" fill="none" xmlns="http://www.w3.org/2000/svg">
<path d="M18.3333 36.6667C17.1178 36.6667 15.952 36.1838 15.0924 35.3242C14.2329 34.4647 13.75 33.2989 13.75 32.0833C13.75 29.5396 15.7896 27.5 18.3333 27.5C19.5489 27.5 20.7147 27.9829 21.5742 28.8424C22.4338 29.702 22.9167 30.8678 22.9167 32.0833C22.9167 33.2989 22.4338 34.4647 21.5742 35.3242C20.7147 36.1838 19.5489 36.6667 18.3333 36.6667ZM32.0833 43.5417V20.625H4.58333V43.5417H32.0833ZM32.0833 16.0417C33.2989 16.0417 34.4647 16.5246 35.3242 17.3841C36.1838 18.2436 36.6667 19.4094 36.6667 20.625V43.5417C36.6667 44.7572 36.1838 45.923 35.3242 46.7826C34.4647 47.6421 33.2989 48.125 32.0833 48.125H4.58333C3.36776 48.125 2.20197 47.6421 1.34243 46.7826C0.482885 45.923 0 44.7572 0 43.5417V20.625C0 18.0813 2.03958 16.0417 4.58333 16.0417H6.875V11.4583C6.875 8.41939 8.08221 5.50492 10.2311 3.35607C12.3799 1.20721 15.2944 0 18.3333 0C19.8381 0 21.3281 0.296379 22.7182 0.872214C24.1084 1.44805 25.3716 2.29206 26.4356 3.35607C27.4996 4.42007 28.3436 5.68323 28.9195 7.07342C29.4953 8.46361 29.7917 9.9536 29.7917 11.4583V16.0417H32.0833ZM18.3333 4.58333C16.51 4.58333 14.7613 5.30766 13.472 6.59697C12.1827 7.88629 11.4583 9.63497 11.4583 11.4583V16.0417H25.2083V11.4583C25.2083 9.63497 24.484 7.88629 23.1947 6.59697C21.9054 5.30766 20.1567 4.58333 18.3333 4.58333Z" fill="white"/>
</svg>
