<svg width="55" height="55" viewBox="0 0 55 55" fill="none" xmlns="http://www.w3.org/2000/svg">
<path fill-rule="evenodd" clip-rule="evenodd" d="M27.4999 30.9375C29.9311 30.9375 32.2626 29.9717 33.9817 28.2526C35.7008 26.5336 36.6666 24.202 36.6666 21.7708C36.6666 19.3397 35.7008 17.0081 33.9817 15.289C32.2626 13.5699 29.9311 12.6042 27.4999 12.6042C25.0688 12.6042 22.7372 13.5699 21.0181 15.289C19.299 17.0081 18.3333 19.3397 18.3333 21.7708C18.3333 24.202 19.299 26.5336 21.0181 28.2526C22.7372 29.9717 25.0688 30.9375 27.4999 30.9375ZM27.4999 28.6458C28.4028 28.6458 29.2968 28.468 30.1309 28.1225C30.965 27.777 31.7229 27.2706 32.3613 26.6322C32.9997 25.9938 33.5061 25.2359 33.8516 24.4018C34.1971 23.5677 34.3749 22.6737 34.3749 21.7708C34.3749 20.868 34.1971 19.974 33.8516 19.1399C33.5061 18.3058 32.9997 17.5479 32.3613 16.9095C31.7229 16.2711 30.965 15.7647 30.1309 15.4192C29.2968 15.0737 28.4028 14.8958 27.4999 14.8958C25.6766 14.8958 23.9279 15.6202 22.6386 16.9095C21.3492 18.1988 20.6249 19.9475 20.6249 21.7708C20.6249 23.5942 21.3492 25.3429 22.6386 26.6322C23.9279 27.9215 25.6766 28.6458 27.4999 28.6458Z" fill="white"/>
<path fill-rule="evenodd" clip-rule="evenodd" d="M50.4166 27.5C50.4166 40.1569 40.1568 50.4167 27.4999 50.4167C14.843 50.4167 4.58325 40.1569 4.58325 27.5C4.58325 14.8431 14.843 4.58333 27.4999 4.58333C40.1568 4.58333 50.4166 14.8431 50.4166 27.5ZM38.5343 44.9281C35.2354 47.0222 31.4073 48.1313 27.4999 48.125C23.4988 48.1314 19.5831 46.9685 16.2341 44.7792C15.9591 44.4354 15.6806 44.0802 15.3976 43.7135C15.0705 43.2838 14.8941 42.7583 14.8958 42.2182C14.8958 40.9842 15.7826 39.9495 16.9686 39.7765C24.8118 38.6306 30.2121 38.7292 38.0656 39.8166C38.6344 39.899 39.1541 40.1845 39.5288 40.6202C39.9035 41.056 40.1078 41.6126 40.1041 42.1873C40.1041 42.7373 39.915 43.2712 39.5736 43.6883C39.2218 44.1169 38.8746 44.5305 38.5343 44.9281ZM42.3786 41.784C42.1952 39.639 40.567 37.8492 38.3796 37.5467C30.3404 36.4341 24.7213 36.3275 16.6374 37.5088C14.4374 37.8297 12.8161 39.6355 12.6236 41.7862C8.92862 37.9489 6.86764 32.8271 6.87492 27.5C6.87492 16.1093 16.1092 6.87499 27.4999 6.87499C38.8906 6.87499 48.1249 16.1093 48.1249 27.5C48.1322 32.8259 46.0721 37.9468 42.3786 41.784Z" fill="white"/>
</svg>
