<svg width="248" height="58" viewBox="0 0 248 58" fill="none" xmlns="http://www.w3.org/2000/svg">
<rect x="0.5" y="0.5" width="246.043" height="56.8379" rx="19.5" fill="black" stroke="black"/>
<g clip-path="url(#clip0_8_82)">
<path d="M45.204 21.8837C42.2061 23.6415 40.3544 26.655 40.3544 30.0033C40.3544 33.7702 42.7351 37.2022 46.3503 38.6253C45.6449 40.8017 44.5868 42.8107 43.2642 44.6522C41.3243 47.2472 39.2963 49.9258 36.2984 49.9258C33.3005 49.9258 32.4187 48.2517 28.8918 48.2517C25.453 48.2517 24.2185 50.0095 21.3969 50.0095C18.5754 50.0095 16.6355 47.582 14.4312 44.5685C11.5214 40.3831 9.84611 35.5281 9.75793 30.4219C9.75793 22.1348 15.4011 17.6983 21.0442 17.6983C24.0422 17.6983 26.5111 19.5398 28.3627 19.5398C30.1262 19.5398 32.9478 17.6146 36.2984 17.6146C39.8254 17.5309 43.176 19.1213 45.204 21.8837ZM34.7113 14.0988C36.2102 12.4247 37.0038 10.332 37.092 8.15556C37.092 7.90444 37.092 7.56961 37.0038 7.31848C34.4467 7.56961 32.066 8.74152 30.3907 10.5831C28.8918 12.1735 28.01 14.1825 27.9218 16.3589C27.9218 16.6101 27.9218 16.8612 28.01 17.1123C28.1864 17.1123 28.4509 17.196 28.6272 17.196C31.0079 17.0286 33.2123 15.8567 34.7113 14.0988Z" fill="white"/>
</g>
<path d="M81.8935 26.679H79.7457C79.7524 26.3939 79.7159 26.1421 79.6364 25.9233C79.5568 25.7012 79.4375 25.5123 79.2784 25.3565C79.1226 25.2008 78.932 25.0831 78.7067 25.0036C78.4813 24.9207 78.2277 24.8793 77.946 24.8793C77.4025 24.8793 76.9036 25.0152 76.4496 25.2869C75.9955 25.5587 75.6127 25.9531 75.3011 26.4702C74.9896 26.9839 74.7741 27.6054 74.6548 28.3345C74.5388 29.0372 74.5454 29.6255 74.6747 30.0994C74.804 30.5734 75.0327 30.9314 75.3608 31.1733C75.6922 31.4119 76.1049 31.5313 76.5987 31.5313C76.9036 31.5313 77.1936 31.4931 77.4687 31.4169C77.7438 31.3374 77.9941 31.2247 78.2195 31.0788C78.4481 30.9297 78.647 30.7491 78.816 30.5369C78.9884 30.3248 79.1226 30.0845 79.2187 29.8161H81.3814C81.2455 30.2834 81.0334 30.7341 80.745 31.1683C80.46 31.6025 80.107 31.9903 79.6861 32.3317C79.2651 32.6698 78.7862 32.9382 78.2493 33.1371C77.7123 33.3359 77.124 33.4354 76.4844 33.4354C75.5596 33.4354 74.7659 33.2233 74.103 32.799C73.4434 32.3748 72.9678 31.7633 72.6761 30.9645C72.3845 30.1657 72.3298 29.2029 72.5121 28.076C72.6944 26.9856 73.0507 26.0609 73.581 25.3019C74.1146 24.5395 74.7625 23.9612 75.5248 23.5668C76.2905 23.1724 77.1091 22.9751 77.9808 22.9751C78.5873 22.9751 79.1359 23.058 79.6264 23.2237C80.1169 23.3894 80.5346 23.6314 80.8793 23.9496C81.2273 24.2644 81.4891 24.6506 81.6648 25.108C81.8404 25.5653 81.9167 26.089 81.8935 26.679ZM85.7688 33.4453C84.9899 33.4453 84.3453 33.2796 83.8349 32.9482C83.3244 32.6134 82.9648 32.1494 82.756 31.5561C82.5505 30.9595 82.5124 30.2652 82.6417 29.473C82.7676 28.6908 83.0295 28.0064 83.4272 27.4198C83.8249 26.8331 84.3304 26.3774 84.9435 26.0526C85.5567 25.7244 86.2477 25.5604 87.0167 25.5604C87.7922 25.5604 88.4352 25.7278 88.9457 26.0625C89.4561 26.3939 89.8157 26.858 90.0245 27.4546C90.2333 28.0511 90.2731 28.7455 90.1438 29.5377C90.0146 30.3165 89.7494 30.9993 89.3484 31.5859C88.9473 32.1726 88.4419 32.63 87.832 32.9581C87.2222 33.2829 86.5344 33.4453 85.7688 33.4453ZM85.9776 31.8047C86.3356 31.8047 86.6521 31.7036 86.9272 31.5014C87.2056 31.2959 87.436 31.0175 87.6182 30.6662C87.8038 30.3116 87.9331 29.9105 88.006 29.4631C88.0789 29.0223 88.0839 28.6312 88.0209 28.2898C87.958 27.9451 87.8254 27.6733 87.6232 27.4744C87.4244 27.2756 87.1509 27.1761 86.8029 27.1761C86.4449 27.1761 86.1268 27.2789 85.8484 27.4844C85.5699 27.6866 85.3396 27.965 85.1573 28.3196C84.975 28.6743 84.8474 29.0769 84.7745 29.5277C84.7049 29.9652 84.6999 30.3563 84.7596 30.701C84.8192 31.0424 84.9502 31.3125 85.1523 31.5114C85.3545 31.7069 85.6296 31.8047 85.9776 31.8047ZM93.7582 28.8814L93.0224 33.2962H90.9094L92.1822 25.6598H94.1957L93.9769 27.0071H94.0614C94.3034 26.5597 94.6448 26.2067 95.0856 25.9482C95.5297 25.6896 96.0351 25.5604 96.6019 25.5604C97.1322 25.5604 97.5747 25.6764 97.9293 25.9084C98.2873 26.1404 98.5392 26.4702 98.685 26.8977C98.8342 27.3253 98.859 27.8374 98.7596 28.434L97.9442 33.2962H95.8263L96.5771 28.8118C96.6533 28.3445 96.5936 27.9799 96.3981 27.718C96.2058 27.4529 95.8959 27.3203 95.4684 27.3203C95.1833 27.3203 94.9215 27.3816 94.6829 27.5043C94.4442 27.6269 94.2437 27.8059 94.0813 28.0412C93.9222 28.2732 93.8145 28.5533 93.7582 28.8814ZM104.938 25.6598L104.675 27.2507H100.071L100.339 25.6598H104.938ZM101.682 23.8303H103.8L102.616 30.9496C102.583 31.1451 102.588 31.2976 102.631 31.407C102.674 31.513 102.746 31.5876 102.845 31.6307C102.948 31.6738 103.07 31.6953 103.213 31.6953C103.312 31.6953 103.413 31.687 103.516 31.6705C103.619 31.6506 103.697 31.6357 103.75 31.6257L103.829 33.2017C103.71 33.2382 103.549 33.2779 103.347 33.321C103.148 33.3641 102.913 33.3906 102.641 33.4006C102.124 33.4205 101.687 33.3525 101.329 33.1967C100.971 33.0377 100.714 32.794 100.558 32.4659C100.402 32.1378 100.369 31.7252 100.459 31.228L101.682 23.8303ZM105.045 33.2962L106.318 25.6598H108.436L107.163 33.2962H105.045ZM107.595 24.6655C107.28 24.6655 107.02 24.5611 106.815 24.3523C106.613 24.1402 106.53 23.8883 106.566 23.5966C106.603 23.2983 106.745 23.0464 106.994 22.8409C107.242 22.6321 107.524 22.5277 107.839 22.5277C108.154 22.5277 108.411 22.6321 108.61 22.8409C108.808 23.0464 108.891 23.2983 108.858 23.5966C108.825 23.8883 108.684 24.1402 108.436 24.3523C108.19 24.5611 107.91 24.6655 107.595 24.6655ZM111.723 28.8814L110.987 33.2962H108.874L110.147 25.6598H112.161L111.942 27.0071H112.026C112.268 26.5597 112.61 26.2067 113.05 25.9482C113.495 25.6896 114 25.5604 114.567 25.5604C115.097 25.5604 115.54 25.6764 115.894 25.9084C116.252 26.1404 116.504 26.4702 116.65 26.8977C116.799 27.3253 116.824 27.8374 116.724 28.434L115.909 33.2962H113.791L114.542 28.8118C114.618 28.3445 114.558 27.9799 114.363 27.718C114.171 27.4529 113.861 27.3203 113.433 27.3203C113.148 27.3203 112.886 27.3816 112.648 27.5043C112.409 27.6269 112.209 27.8059 112.046 28.0412C111.887 28.2732 111.779 28.5533 111.723 28.8814ZM123.007 30.0448L123.738 25.6598H125.856L124.583 33.2962H122.55L122.779 31.9091H122.699C122.464 32.3565 122.121 32.7162 121.67 32.9879C121.219 33.2597 120.707 33.3956 120.134 33.3956C119.623 33.3956 119.192 33.2796 118.841 33.0476C118.493 32.8156 118.246 32.4858 118.1 32.0582C117.954 31.6307 117.93 31.1186 118.026 30.522L118.841 25.6598H120.959L120.213 30.1442C120.144 30.5949 120.207 30.9512 120.402 31.2131C120.598 31.4749 120.896 31.6058 121.297 31.6058C121.552 31.6058 121.799 31.5478 122.038 31.4318C122.28 31.3125 122.489 31.1368 122.664 30.9048C122.84 30.6728 122.954 30.3861 123.007 30.0448ZM129.738 33.4453C128.955 33.4453 128.307 33.2862 127.794 32.968C127.28 32.6466 126.919 32.1925 126.71 31.6058C126.504 31.0159 126.47 30.3182 126.605 29.5128C126.738 28.7273 127.005 28.0379 127.406 27.4446C127.81 26.8513 128.317 26.389 128.927 26.0575C129.537 25.7261 130.216 25.5604 130.966 25.5604C131.469 25.5604 131.925 25.6416 132.333 25.804C132.744 25.9631 133.085 26.205 133.357 26.5298C133.629 26.8513 133.814 27.254 133.914 27.7379C134.016 28.2218 134.015 28.7886 133.909 29.4382L133.814 30.0199H127.371L127.575 28.7074H132.029C132.079 28.4025 132.059 28.1323 131.97 27.897C131.88 27.6617 131.731 27.4778 131.522 27.3452C131.314 27.2093 131.057 27.1413 130.752 27.1413C130.44 27.1413 130.149 27.2176 129.877 27.37C129.605 27.5225 129.376 27.723 129.191 27.9716C129.008 28.2169 128.891 28.4837 128.838 28.772L128.604 30.0746C128.538 30.4756 128.551 30.8087 128.644 31.0739C128.74 31.339 128.906 31.5379 129.141 31.6705C129.376 31.7997 129.675 31.8644 130.036 31.8644C130.271 31.8644 130.492 31.8312 130.697 31.7649C130.906 31.6986 131.091 31.6009 131.254 31.4716C131.416 31.339 131.549 31.175 131.652 30.9794L133.586 31.1087C133.407 31.5793 133.135 31.9903 132.77 32.3416C132.406 32.6896 131.966 32.9614 131.453 33.157C130.942 33.3492 130.371 33.4453 129.738 33.4453ZM139.405 33.2962L138.599 25.6598H140.742L141.07 30.7905H141.14L143.228 25.6598H145.331L145.729 30.7607H145.793L147.812 25.6598H149.95L146.604 33.2962H144.361L143.844 28.4936H143.75L141.642 33.2962H139.405ZM149.807 33.2962L151.079 25.6598H153.197L151.925 33.2962H149.807ZM152.357 24.6655C152.042 24.6655 151.782 24.5611 151.577 24.3523C151.374 24.1402 151.291 23.8883 151.328 23.5966C151.364 23.2983 151.507 23.0464 151.755 22.8409C152.004 22.6321 152.286 22.5277 152.601 22.5277C152.916 22.5277 153.172 22.6321 153.371 22.8409C153.57 23.0464 153.653 23.2983 153.62 23.5966C153.587 23.8883 153.446 24.1402 153.197 24.3523C152.952 24.5611 152.672 24.6655 152.357 24.6655ZM158.956 25.6598L158.692 27.2507H154.088L154.357 25.6598H158.956ZM155.699 23.8303H157.817L156.634 30.9496C156.601 31.1451 156.606 31.2976 156.649 31.407C156.692 31.513 156.763 31.5876 156.863 31.6307C156.965 31.6738 157.088 31.6953 157.23 31.6953C157.33 31.6953 157.431 31.687 157.534 31.6705C157.636 31.6506 157.714 31.6357 157.767 31.6257L157.847 33.2017C157.728 33.2382 157.567 33.2779 157.365 33.321C157.166 33.3641 156.931 33.3906 156.659 33.4006C156.142 33.4205 155.704 33.3525 155.346 33.1967C154.988 33.0377 154.731 32.794 154.576 32.4659C154.42 32.1378 154.387 31.7252 154.476 31.228L155.699 23.8303ZM162.09 28.8814L161.354 33.2962H159.241L160.932 23.1144H162.985L162.349 27.0071H162.433C162.678 26.5564 163.015 26.2034 163.442 25.9482C163.87 25.6896 164.375 25.5604 164.959 25.5604C165.489 25.5604 165.932 25.6764 166.286 25.9084C166.644 26.1371 166.898 26.4669 167.047 26.8977C167.196 27.3253 167.221 27.8374 167.121 28.434L166.306 33.2962H164.193L164.939 28.8118C165.015 28.3412 164.954 27.9749 164.755 27.7131C164.559 27.4512 164.248 27.3203 163.82 27.3203C163.532 27.3203 163.267 27.3816 163.025 27.5043C162.783 27.6269 162.579 27.8059 162.413 28.0412C162.251 28.2732 162.143 28.5533 162.09 28.8814ZM172.998 33.2962H170.691L175.896 23.1144H178.67L180.49 33.2962H178.183L176.945 25.4411H176.866L172.998 33.2962ZM173.525 29.294H178.974L178.685 30.9744H173.236L173.525 29.294ZM181.213 36.1598L182.973 25.6598H185.061L184.848 26.9425H184.942C185.068 26.737 185.235 26.5282 185.444 26.3161C185.656 26.1006 185.92 25.9216 186.235 25.7791C186.55 25.6333 186.919 25.5604 187.343 25.5604C187.904 25.5604 188.392 25.7062 188.81 25.9979C189.228 26.2862 189.529 26.7221 189.715 27.3054C189.904 27.8854 189.925 28.6129 189.779 29.4879C189.64 30.3397 189.383 31.059 189.009 31.6456C188.638 32.2289 188.192 32.6714 187.672 32.973C187.154 33.2713 186.606 33.4205 186.026 33.4205C185.615 33.4205 185.277 33.3525 185.012 33.2166C184.75 33.0807 184.546 32.91 184.4 32.7046C184.254 32.4957 184.152 32.2853 184.092 32.0732H184.012L183.336 36.1598H181.213ZM184.41 29.478C184.337 29.9321 184.334 30.3281 184.4 30.6662C184.47 31.0043 184.609 31.2678 184.818 31.4567C185.027 31.6423 185.302 31.7351 185.643 31.7351C185.988 31.7351 186.294 31.6406 186.563 31.4517C186.831 31.2595 187.055 30.9943 187.234 30.6563C187.413 30.3149 187.541 29.9221 187.617 29.478C187.686 29.0372 187.688 28.6494 187.622 28.3146C187.556 27.9799 187.42 27.718 187.214 27.5291C187.009 27.3402 186.73 27.2457 186.379 27.2457C186.038 27.2457 185.731 27.3369 185.459 27.5192C185.191 27.7015 184.967 27.96 184.788 28.2948C184.609 28.6295 184.483 29.0239 184.41 29.478ZM190.086 36.1598L191.846 25.6598H193.934L193.721 26.9425H193.815C193.941 26.737 194.108 26.5282 194.317 26.3161C194.529 26.1006 194.793 25.9216 195.108 25.7791C195.423 25.6333 195.792 25.5604 196.216 25.5604C196.777 25.5604 197.265 25.7062 197.683 25.9979C198.101 26.2862 198.402 26.7221 198.588 27.3054C198.777 27.8854 198.798 28.6129 198.653 29.4879C198.513 30.3397 198.256 31.059 197.882 31.6456C197.511 32.2289 197.065 32.6714 196.545 32.973C196.028 33.2713 195.479 33.4205 194.899 33.4205C194.488 33.4205 194.15 33.3525 193.885 33.2166C193.623 33.0807 193.419 32.91 193.273 32.7046C193.127 32.4957 193.025 32.2853 192.965 32.0732H192.885L192.209 36.1598H190.086ZM193.283 29.478C193.21 29.9321 193.207 30.3281 193.273 30.6662C193.343 31.0043 193.482 31.2678 193.691 31.4567C193.9 31.6423 194.175 31.7351 194.516 31.7351C194.861 31.7351 195.167 31.6406 195.436 31.4517C195.704 31.2595 195.928 30.9943 196.107 30.6563C196.286 30.3149 196.414 29.9221 196.49 29.478C196.559 29.0372 196.561 28.6494 196.495 28.3146C196.429 27.9799 196.293 27.718 196.087 27.5291C195.882 27.3402 195.603 27.2457 195.252 27.2457C194.911 27.2457 194.604 27.3369 194.332 27.5192C194.064 27.7015 193.84 27.96 193.661 28.2948C193.482 28.6295 193.356 29.0239 193.283 29.478ZM203.23 23.1144L201.54 33.2962H199.422L201.112 23.1144H203.23ZM206.697 33.4453C205.914 33.4453 205.266 33.2862 204.753 32.968C204.239 32.6466 203.878 32.1925 203.669 31.6058C203.463 31.0159 203.429 30.3182 203.564 29.5128C203.697 28.7273 203.964 28.0379 204.365 27.4446C204.769 26.8513 205.276 26.389 205.886 26.0575C206.496 25.7261 207.175 25.5604 207.925 25.5604C208.428 25.5604 208.884 25.6416 209.292 25.804C209.703 25.9631 210.044 26.205 210.316 26.5298C210.588 26.8513 210.773 27.254 210.873 27.7379C210.975 28.2218 210.974 28.7886 210.868 29.4382L210.773 30.0199H204.33L204.534 28.7074H208.988C209.038 28.4025 209.018 28.1323 208.929 27.897C208.839 27.6617 208.69 27.4778 208.481 27.3452C208.273 27.2093 208.016 27.1413 207.711 27.1413C207.399 27.1413 207.108 27.2176 206.836 27.37C206.564 27.5225 206.335 27.723 206.15 27.9716C205.967 28.2169 205.85 28.4837 205.797 28.772L205.563 30.0746C205.497 30.4756 205.51 30.8087 205.603 31.0739C205.699 31.339 205.865 31.5379 206.1 31.6705C206.335 31.7997 206.634 31.8644 206.995 31.8644C207.23 31.8644 207.451 31.8312 207.656 31.7649C207.865 31.6986 208.05 31.6009 208.213 31.4716C208.375 31.339 208.508 31.175 208.611 30.9794L210.545 31.1087C210.366 31.5793 210.094 31.9903 209.729 32.3416C209.365 32.6896 208.925 32.9614 208.412 33.157C207.901 33.3492 207.33 33.4453 206.697 33.4453Z" fill="white"/>
<defs>
<clipPath id="clip0_8_82">
<rect width="36.5923" height="42.6911" fill="white" transform="translate(9.75793 7.31848)"/>
</clipPath>
</defs>
</svg>
