<svg width="248" height="58" viewBox="0 0 248 58" fill="none" xmlns="http://www.w3.org/2000/svg">
<rect x="0.5" y="0.5" width="246.043" height="56.8379" rx="19.5" fill="#1877F2" stroke="#323DA2"/>
<path d="M71.5203 34.0764V23.8946H72.7532V32.9827H77.4862V34.0764H71.5203ZM82.3385 34.2355C81.6491 34.2355 81.0442 34.0715 80.5238 33.7433C80.0068 33.4152 79.6024 32.9562 79.3108 32.3662C79.0224 31.7762 78.8782 31.0868 78.8782 30.298C78.8782 29.5026 79.0224 28.8082 79.3108 28.2149C79.6024 27.6216 80.0068 27.1609 80.5238 26.8328C81.0442 26.5047 81.6491 26.3406 82.3385 26.3406C83.0279 26.3406 83.6311 26.5047 84.1481 26.8328C84.6685 27.1609 85.0728 27.6216 85.3612 28.2149C85.6529 28.8082 85.7987 29.5026 85.7987 30.298C85.7987 31.0868 85.6529 31.7762 85.3612 32.3662C85.0728 32.9562 84.6685 33.4152 84.1481 33.7433C83.6311 34.0715 83.0279 34.2355 82.3385 34.2355ZM82.3385 33.1815C82.8621 33.1815 83.293 33.0473 83.6311 32.7788C83.9691 32.5104 84.2194 32.1574 84.3818 31.7199C84.5442 31.2824 84.6254 30.8084 84.6254 30.298C84.6254 29.7876 84.5442 29.312 84.3818 28.8712C84.2194 28.4304 83.9691 28.0741 83.6311 27.8023C83.293 27.5305 82.8621 27.3946 82.3385 27.3946C81.8148 27.3946 81.3839 27.5305 81.0458 27.8023C80.7078 28.0741 80.4575 28.4304 80.2951 28.8712C80.1327 29.312 80.0515 29.7876 80.0515 30.298C80.0515 30.8084 80.1327 31.2824 80.2951 31.7199C80.4575 32.1574 80.7078 32.5104 81.0458 32.7788C81.3839 33.0473 81.8148 33.1815 82.3385 33.1815ZM90.6721 37.0992C90.1053 37.0992 89.6181 37.0262 89.2104 36.8804C88.8028 36.7379 88.463 36.549 88.1913 36.3136C87.9228 36.0816 87.709 35.8331 87.5499 35.5679L88.4846 34.9117C88.5906 35.0509 88.7249 35.21 88.8873 35.3889C89.0497 35.5712 89.2718 35.7287 89.5535 35.8612C89.8385 35.9971 90.2114 36.0651 90.6721 36.0651C91.2886 36.0651 91.7973 35.9159 92.1984 35.6176C92.5994 35.3193 92.7999 34.852 92.7999 34.2156V32.6645H92.7005C92.6143 32.8037 92.4917 32.9761 92.3326 33.1815C92.1768 33.3837 91.9514 33.5644 91.6565 33.7234C91.3648 33.8792 90.9704 33.9571 90.4732 33.9571C89.8567 33.9571 89.3032 33.8113 88.8127 33.5196C88.3255 33.2279 87.9394 32.8037 87.6543 32.2469C87.3726 31.6901 87.2317 31.0139 87.2317 30.2185C87.2317 29.4363 87.3693 28.7552 87.6444 28.1752C87.9195 27.5918 88.3023 27.1411 88.7928 26.8229C89.2834 26.5014 89.8501 26.3406 90.4931 26.3406C90.9903 26.3406 91.3847 26.4235 91.6764 26.5892C91.9713 26.7516 92.1967 26.9372 92.3525 27.146C92.5116 27.3515 92.6342 27.5206 92.7204 27.6531H92.8397V26.4401H93.9732V34.2952C93.9732 34.9514 93.8241 35.485 93.5258 35.896C93.2308 36.3103 92.8331 36.6136 92.3326 36.8058C91.8354 37.0014 91.2819 37.0992 90.6721 37.0992ZM90.6323 32.9031C91.103 32.9031 91.5007 32.7954 91.8255 32.58C92.1503 32.3645 92.3972 32.0547 92.5663 31.6503C92.7353 31.2459 92.8198 30.762 92.8198 30.1986C92.8198 29.6484 92.737 29.1628 92.5712 28.7419C92.4055 28.321 92.1603 27.9912 91.8354 27.7526C91.5106 27.5139 91.1096 27.3946 90.6323 27.3946C90.1352 27.3946 89.7209 27.5206 89.3894 27.7725C89.0613 28.0243 88.8144 28.3624 88.6487 28.7867C88.4862 29.2109 88.405 29.6815 88.405 30.1986C88.405 30.7289 88.4879 31.1979 88.6536 31.6056C88.8227 32.0099 89.0712 32.3281 89.3994 32.5601C89.7308 32.7888 90.1418 32.9031 90.6323 32.9031ZM100.058 34.0764V26.4401H101.232V34.0764H100.058ZM100.655 25.1673C100.426 25.1673 100.229 25.0895 100.063 24.9337C99.901 24.7779 99.8198 24.5906 99.8198 24.3719C99.8198 24.1531 99.901 23.9659 100.063 23.8101C100.229 23.6543 100.426 23.5764 100.655 23.5764C100.884 23.5764 101.079 23.6543 101.242 23.8101C101.407 23.9659 101.49 24.1531 101.49 24.3719C101.49 24.5906 101.407 24.7779 101.242 24.9337C101.079 25.0895 100.884 25.1673 100.655 25.1673ZM104.554 29.4827V34.0764H103.381V26.4401H104.514V27.6332H104.614C104.793 27.2455 105.064 26.9339 105.429 26.6986C105.794 26.46 106.264 26.3406 106.841 26.3406C107.358 26.3406 107.81 26.4467 108.198 26.6588C108.586 26.8676 108.888 27.1858 109.103 27.6134C109.318 28.0376 109.426 28.5745 109.426 29.2242V34.0764H108.253V29.3037C108.253 28.7038 108.097 28.2365 107.786 27.9017C107.474 27.5636 107.046 27.3946 106.503 27.3946C106.128 27.3946 105.794 27.4758 105.499 27.6382C105.207 27.8006 104.977 28.0376 104.808 28.3492C104.639 28.6607 104.554 29.0386 104.554 29.4827ZM117.238 34.0764L114.911 26.4401H116.144L117.795 32.2867H117.874L119.505 26.4401H120.758L122.368 32.2668H122.448L124.099 26.4401H125.332L123.005 34.0764H121.851L120.181 28.21H120.062L118.391 34.0764H117.238ZM126.883 34.0764V26.4401H128.056V34.0764H126.883ZM127.479 25.1673C127.251 25.1673 127.053 25.0895 126.888 24.9337C126.725 24.7779 126.644 24.5906 126.644 24.3719C126.644 24.1531 126.725 23.9659 126.888 23.8101C127.053 23.6543 127.251 23.5764 127.479 23.5764C127.708 23.5764 127.904 23.6543 128.066 23.8101C128.232 23.9659 128.314 24.1531 128.314 24.3719C128.314 24.5906 128.232 24.7779 128.066 24.9337C127.904 25.0895 127.708 25.1673 127.479 25.1673ZM133.526 26.4401V27.4344H129.569V26.4401H133.526ZM130.722 24.6105H131.895V31.8889C131.895 32.2204 131.943 32.469 132.039 32.6347C132.139 32.7971 132.265 32.9065 132.417 32.9628C132.573 33.0158 132.737 33.0423 132.909 33.0423C133.039 33.0423 133.145 33.0357 133.228 33.0225C133.311 33.0059 133.377 32.9926 133.427 32.9827L133.665 34.0367C133.586 34.0665 133.475 34.0963 133.332 34.1261C133.19 34.1593 133.009 34.1759 132.79 34.1759C132.459 34.1759 132.134 34.1046 131.816 33.9621C131.501 33.8196 131.239 33.6025 131.03 33.3108C130.825 33.0191 130.722 32.6512 130.722 32.2071V24.6105ZM136.628 29.4827V34.0764H135.455V23.8946H136.628V27.6332H136.728C136.907 27.2388 137.175 26.9256 137.533 26.6936C137.894 26.4583 138.375 26.3406 138.975 26.3406C139.495 26.3406 139.951 26.445 140.342 26.6538C140.733 26.8593 141.036 27.1759 141.252 27.6034C141.471 28.0277 141.58 28.5679 141.58 29.2242V34.0764H140.407V29.3037C140.407 28.6972 140.249 28.2282 139.934 27.8967C139.623 27.562 139.19 27.3946 138.637 27.3946C138.252 27.3946 137.908 27.4758 137.603 27.6382C137.301 27.8006 137.062 28.0376 136.887 28.3492C136.714 28.6607 136.628 29.0386 136.628 29.4827ZM147.823 34.0764V23.8946H153.928V24.9884H149.056V28.4287H153.471V29.5225H149.056V34.0764H147.823ZM158.128 34.2554C157.644 34.2554 157.205 34.1643 156.81 33.982C156.416 33.7964 156.103 33.5296 155.871 33.1815C155.639 32.8302 155.523 32.406 155.523 31.9088C155.523 31.4713 155.609 31.1167 155.781 30.8449C155.954 30.5698 156.184 30.3544 156.472 30.1986C156.761 30.0428 157.079 29.9268 157.427 29.8506C157.778 29.771 158.131 29.7081 158.486 29.6617C158.95 29.602 159.326 29.5573 159.614 29.5274C159.906 29.4943 160.118 29.4396 160.251 29.3634C160.387 29.2871 160.455 29.1546 160.455 28.9656V28.9259C160.455 28.4353 160.32 28.0542 160.052 27.7824C159.787 27.5106 159.384 27.3747 158.844 27.3747C158.284 27.3747 157.844 27.4974 157.526 27.7426C157.208 27.9879 156.984 28.2497 156.855 28.5281L155.742 28.1304C155.94 27.6664 156.206 27.3051 156.537 27.0466C156.872 26.7848 157.236 26.6025 157.631 26.4997C158.028 26.3937 158.42 26.3406 158.804 26.3406C159.049 26.3406 159.331 26.3705 159.649 26.4301C159.971 26.4865 160.281 26.6041 160.579 26.7831C160.88 26.9621 161.131 27.2322 161.33 27.5935C161.528 27.9547 161.628 28.4386 161.628 29.0452V34.0764H160.455V33.0423H160.395C160.315 33.2081 160.183 33.3854 159.997 33.5743C159.812 33.7632 159.565 33.924 159.256 34.0565C158.948 34.1891 158.572 34.2554 158.128 34.2554ZM158.307 33.2014C158.771 33.2014 159.162 33.1103 159.48 32.928C159.802 32.7457 160.044 32.5104 160.206 32.222C160.372 31.9337 160.455 31.6304 160.455 31.3122V30.2384C160.405 30.298 160.295 30.3527 160.126 30.4024C159.961 30.4488 159.769 30.4903 159.55 30.5267C159.334 30.5599 159.124 30.5897 158.918 30.6162C158.716 30.6394 158.552 30.6593 158.426 30.6759C158.121 30.7156 157.836 30.7803 157.571 30.8698C157.309 30.9559 157.097 31.0868 156.935 31.2625C156.776 31.4349 156.696 31.6702 156.696 31.9685C156.696 32.3761 156.847 32.6844 157.148 32.8932C157.453 33.0987 157.84 33.2014 158.307 33.2014ZM166.872 34.2355C166.156 34.2355 165.539 34.0665 165.022 33.7284C164.505 33.3904 164.107 32.9247 163.829 32.3314C163.551 31.7381 163.411 31.0603 163.411 30.298C163.411 29.5225 163.554 28.838 163.839 28.2448C164.127 27.6482 164.528 27.1825 165.042 26.8477C165.559 26.5097 166.162 26.3406 166.852 26.3406C167.389 26.3406 167.873 26.4401 168.303 26.6389C168.734 26.8378 169.087 27.1162 169.362 27.4742C169.638 27.8321 169.808 28.2497 169.875 28.727H168.701C168.612 28.379 168.413 28.0707 168.105 27.8023C167.8 27.5305 167.389 27.3946 166.872 27.3946C166.414 27.3946 166.013 27.5139 165.669 27.7526C165.327 27.9879 165.06 28.321 164.868 28.7519C164.679 29.1794 164.585 29.6815 164.585 30.2582C164.585 30.8482 164.678 31.3619 164.863 31.7994C165.052 32.2369 165.317 32.5767 165.659 32.8186C166.003 33.0606 166.408 33.1815 166.872 33.1815C167.177 33.1815 167.453 33.1285 167.702 33.0225C167.95 32.9164 168.161 32.7639 168.333 32.5651C168.506 32.3662 168.628 32.1276 168.701 31.8492H169.875C169.808 32.2999 169.644 32.7059 169.382 33.0672C169.124 33.4252 168.781 33.7102 168.353 33.9223C167.929 34.1311 167.435 34.2355 166.872 34.2355ZM174.791 34.2355C174.056 34.2355 173.421 34.0731 172.887 33.7483C172.357 33.4202 171.948 32.9628 171.659 32.3761C171.374 31.7862 171.232 31.1001 171.232 30.3179C171.232 29.5357 171.374 28.8463 171.659 28.2497C171.948 27.6498 172.349 27.1825 172.862 26.8477C173.379 26.5097 173.983 26.3406 174.672 26.3406C175.07 26.3406 175.463 26.4069 175.85 26.5395C176.238 26.6721 176.591 26.8875 176.909 27.1858C177.227 27.4808 177.481 27.8719 177.67 28.3591C177.859 28.8463 177.953 29.4462 177.953 30.1588V30.656H172.067V29.6418H176.76C176.76 29.2109 176.674 28.8264 176.502 28.4884C176.333 28.1503 176.091 27.8835 175.776 27.6879C175.464 27.4924 175.096 27.3946 174.672 27.3946C174.205 27.3946 173.8 27.5106 173.459 27.7426C173.121 27.9713 172.861 28.2696 172.678 28.6375C172.496 29.0054 172.405 29.3998 172.405 29.8207V30.4969C172.405 31.0736 172.504 31.5625 172.703 31.9635C172.906 32.3612 173.186 32.6645 173.544 32.8733C173.901 33.0788 174.317 33.1815 174.791 33.1815C175.1 33.1815 175.378 33.1385 175.627 33.0523C175.879 32.9628 176.096 32.8302 176.278 32.6546C176.46 32.4756 176.601 32.2535 176.7 31.9884L177.834 32.3065C177.715 32.691 177.514 33.0291 177.232 33.3207C176.951 33.6091 176.603 33.8345 176.188 33.9969C175.774 34.156 175.308 34.2355 174.791 34.2355ZM179.897 34.0764V23.8946H181.071V27.6531H181.17C181.256 27.5206 181.375 27.3515 181.528 27.146C181.684 26.9372 181.906 26.7516 182.194 26.5892C182.486 26.4235 182.88 26.3406 183.377 26.3406C184.02 26.3406 184.587 26.5014 185.078 26.8229C185.568 27.1444 185.951 27.6001 186.226 28.1901C186.501 28.78 186.639 29.4761 186.639 30.2781C186.639 31.0868 186.501 31.7878 186.226 32.3811C185.951 32.9711 185.57 33.4285 185.083 33.7533C184.595 34.0748 184.034 34.2355 183.397 34.2355C182.907 34.2355 182.514 34.1543 182.219 33.9919C181.924 33.8262 181.697 33.6389 181.538 33.4301C181.379 33.218 181.256 33.0423 181.17 32.9031H181.031V34.0764H179.897ZM181.051 30.2582C181.051 30.835 181.135 31.3437 181.304 31.7845C181.473 32.222 181.72 32.5651 182.045 32.8136C182.37 33.0589 182.767 33.1815 183.238 33.1815C183.729 33.1815 184.138 33.0523 184.466 32.7938C184.798 32.5319 185.046 32.1806 185.212 31.7398C185.381 31.2957 185.465 30.8018 185.465 30.2582C185.465 29.7213 185.383 29.2374 185.217 28.8065C185.054 28.3724 184.808 28.0293 184.476 27.7774C184.148 27.5222 183.735 27.3946 183.238 27.3946C182.761 27.3946 182.36 27.5156 182.035 27.7575C181.71 27.9962 181.465 28.3309 181.299 28.7618C181.133 29.1894 181.051 29.6882 181.051 30.2582ZM191.536 34.2355C190.846 34.2355 190.241 34.0715 189.721 33.7433C189.204 33.4152 188.8 32.9562 188.508 32.3662C188.22 31.7762 188.075 31.0868 188.075 30.298C188.075 29.5026 188.22 28.8082 188.508 28.2149C188.8 27.6216 189.204 27.1609 189.721 26.8328C190.241 26.5047 190.846 26.3406 191.536 26.3406C192.225 26.3406 192.828 26.5047 193.345 26.8328C193.866 27.1609 194.27 27.6216 194.558 28.2149C194.85 28.8082 194.996 29.5026 194.996 30.298C194.996 31.0868 194.85 31.7762 194.558 32.3662C194.27 32.9562 193.866 33.4152 193.345 33.7433C192.828 34.0715 192.225 34.2355 191.536 34.2355ZM191.536 33.1815C192.059 33.1815 192.49 33.0473 192.828 32.7788C193.166 32.5104 193.417 32.1574 193.579 31.7199C193.741 31.2824 193.823 30.8084 193.823 30.298C193.823 29.7876 193.741 29.312 193.579 28.8712C193.417 28.4304 193.166 28.0741 192.828 27.8023C192.49 27.5305 192.059 27.3946 191.536 27.3946C191.012 27.3946 190.581 27.5305 190.243 27.8023C189.905 28.0741 189.655 28.4304 189.492 28.8712C189.33 29.312 189.249 29.7876 189.249 30.298C189.249 30.8084 189.33 31.2824 189.492 31.7199C189.655 32.1574 189.905 32.5104 190.243 32.7788C190.581 33.0473 191.012 33.1815 191.536 33.1815ZM199.889 34.2355C199.2 34.2355 198.595 34.0715 198.075 33.7433C197.558 33.4152 197.153 32.9562 196.862 32.3662C196.573 31.7762 196.429 31.0868 196.429 30.298C196.429 29.5026 196.573 28.8082 196.862 28.2149C197.153 27.6216 197.558 27.1609 198.075 26.8328C198.595 26.5047 199.2 26.3406 199.889 26.3406C200.579 26.3406 201.182 26.5047 201.699 26.8328C202.219 27.1609 202.624 27.6216 202.912 28.2149C203.204 28.8082 203.349 29.5026 203.349 30.298C203.349 31.0868 203.204 31.7762 202.912 32.3662C202.624 32.9562 202.219 33.4152 201.699 33.7433C201.182 34.0715 200.579 34.2355 199.889 34.2355ZM199.889 33.1815C200.413 33.1815 200.844 33.0473 201.182 32.7788C201.52 32.5104 201.77 32.1574 201.933 31.7199C202.095 31.2824 202.176 30.8084 202.176 30.298C202.176 29.7876 202.095 29.312 201.933 28.8712C201.77 28.4304 201.52 28.0741 201.182 27.8023C200.844 27.5305 200.413 27.3946 199.889 27.3946C199.366 27.3946 198.935 27.5305 198.597 27.8023C198.259 28.0741 198.008 28.4304 197.846 28.8712C197.684 29.312 197.602 29.7876 197.602 30.298C197.602 30.8084 197.684 31.2824 197.846 31.7199C198.008 32.1574 198.259 32.5104 198.597 32.7788C198.935 33.0473 199.366 33.1815 199.889 33.1815ZM206.234 31.2923L206.214 29.8406H206.453L209.794 26.4401H211.246L207.686 30.0395H207.587L206.234 31.2923ZM205.14 34.0764V23.8946H206.314V34.0764H205.14ZM209.993 34.0764L207.01 30.298L207.845 29.4827L211.484 34.0764H209.993Z" fill="white"/>
<g clip-path="url(#clip0_8_56)">
<path d="M48.7898 28.664C48.7898 16.8752 39.2331 7.31846 27.4443 7.31846C15.6555 7.31846 6.09875 16.8752 6.09875 28.664C6.09875 39.3182 13.9045 48.1489 24.109 49.7502V34.8342H18.6893V28.664H24.109V23.9613C24.109 18.6116 27.2958 15.6566 32.1716 15.6566C34.5069 15.6566 36.9497 16.0735 36.9497 16.0735V21.3265H34.2581C31.6065 21.3265 30.7795 22.9719 30.7795 24.6599V28.664H36.6996L35.7532 34.8342H30.7795V49.7502C40.9841 48.1489 48.7898 39.3182 48.7898 28.664Z" fill="white"/>
</g>
<defs>
<clipPath id="clip0_8_56">
<rect width="42.6911" height="42.6911" fill="white" transform="translate(6.09875 7.31847)"/>
</clipPath>
</defs>
</svg>
