<svg width="248" height="58" viewBox="0 0 248 58" fill="none" xmlns="http://www.w3.org/2000/svg">
<rect x="0.5" y="0.5" width="246.043" height="56.8379" rx="19.5" fill="#1877F2" stroke="#323DA2"/>
<path d="M80.5095 34.0764V23.8946H81.7425V32.9827H86.4754V34.0764H80.5095ZM91.3277 34.2355C90.6383 34.2355 90.0334 34.0715 89.5131 33.7433C88.996 33.4152 88.5917 32.9562 88.3 32.3662C88.0117 31.7762 87.8675 31.0868 87.8675 30.298C87.8675 29.5026 88.0117 28.8082 88.3 28.2149C88.5917 27.6216 88.996 27.1609 89.5131 26.8328C90.0334 26.5047 90.6383 26.3406 91.3277 26.3406C92.0171 26.3406 92.6203 26.5047 93.1374 26.8328C93.6577 27.1609 94.0621 27.6216 94.3504 28.2149C94.6421 28.8082 94.7879 29.5026 94.7879 30.298C94.7879 31.0868 94.6421 31.7762 94.3504 32.3662C94.0621 32.9562 93.6577 33.4152 93.1374 33.7433C92.6203 34.0715 92.0171 34.2355 91.3277 34.2355ZM91.3277 33.1815C91.8514 33.1815 92.2823 33.0473 92.6203 32.7788C92.9584 32.5104 93.2086 32.1574 93.371 31.7199C93.5334 31.2824 93.6146 30.8084 93.6146 30.298C93.6146 29.7876 93.5334 29.312 93.371 28.8712C93.2086 28.4304 92.9584 28.0741 92.6203 27.8023C92.2823 27.5305 91.8514 27.3946 91.3277 27.3946C90.804 27.3946 90.3732 27.5305 90.0351 27.8023C89.697 28.0741 89.4468 28.4304 89.2844 28.8712C89.122 29.312 89.0408 29.7876 89.0408 30.298C89.0408 30.8084 89.122 31.2824 89.2844 31.7199C89.4468 32.1574 89.697 32.5104 90.0351 32.7788C90.3732 33.0473 90.804 33.1815 91.3277 33.1815ZM99.6613 37.0992C99.0946 37.0992 98.6074 37.0262 98.1997 36.8804C97.792 36.7379 97.4523 36.549 97.1805 36.3136C96.9121 36.0816 96.6983 35.8331 96.5392 35.5679L97.4738 34.9117C97.5799 35.0509 97.7141 35.21 97.8765 35.3889C98.039 35.5712 98.261 35.7287 98.5427 35.8612C98.8278 35.9971 99.2006 36.0651 99.6613 36.0651C100.278 36.0651 100.787 35.9159 101.188 35.6176C101.589 35.3193 101.789 34.852 101.789 34.2156V32.6645H101.69C101.604 32.8037 101.481 32.9761 101.322 33.1815C101.166 33.3837 100.941 33.5644 100.646 33.7234C100.354 33.8792 99.9596 33.9571 99.4625 33.9571C98.846 33.9571 98.2925 33.8113 97.802 33.5196C97.3148 33.2279 96.9286 32.8037 96.6436 32.2469C96.3619 31.6901 96.221 31.0139 96.221 30.2185C96.221 29.4363 96.3586 28.7552 96.6336 28.1752C96.9087 27.5918 97.2916 27.1411 97.7821 26.8229C98.2726 26.5014 98.8394 26.3406 99.4824 26.3406C99.9795 26.3406 100.374 26.4235 100.666 26.5892C100.961 26.7516 101.186 26.9372 101.342 27.146C101.501 27.3515 101.623 27.5206 101.71 27.6531H101.829V26.4401H102.962V34.2952C102.962 34.9514 102.813 35.485 102.515 35.896C102.22 36.3103 101.822 36.6136 101.322 36.8058C100.825 37.0014 100.271 37.0992 99.6613 37.0992ZM99.6216 32.9031C100.092 32.9031 100.49 32.7954 100.815 32.58C101.14 32.3645 101.386 32.0547 101.556 31.6503C101.725 31.2459 101.809 30.762 101.809 30.1986C101.809 29.6484 101.726 29.1628 101.56 28.7419C101.395 28.321 101.15 27.9912 100.825 27.7526C100.5 27.5139 100.099 27.3946 99.6216 27.3946C99.1244 27.3946 98.7101 27.5206 98.3787 27.7725C98.0506 28.0243 97.8036 28.3624 97.6379 28.7867C97.4755 29.2109 97.3943 29.6815 97.3943 30.1986C97.3943 30.7289 97.4772 31.1979 97.6429 31.6056C97.8119 32.0099 98.0605 32.3281 98.3886 32.5601C98.7201 32.7888 99.131 32.9031 99.6216 32.9031ZM109.048 34.0764V26.4401H110.221V34.0764H109.048ZM109.644 25.1673C109.416 25.1673 109.218 25.0895 109.053 24.9337C108.89 24.7779 108.809 24.5906 108.809 24.3719C108.809 24.1531 108.89 23.9659 109.053 23.8101C109.218 23.6543 109.416 23.5764 109.644 23.5764C109.873 23.5764 110.069 23.6543 110.231 23.8101C110.397 23.9659 110.48 24.1531 110.48 24.3719C110.48 24.5906 110.397 24.7779 110.231 24.9337C110.069 25.0895 109.873 25.1673 109.644 25.1673ZM113.543 29.4827V34.0764H112.37V26.4401H113.503V27.6332H113.603C113.782 27.2455 114.054 26.9339 114.418 26.6986C114.783 26.46 115.253 26.3406 115.83 26.3406C116.347 26.3406 116.8 26.4467 117.187 26.6588C117.575 26.8676 117.877 27.1858 118.092 27.6134C118.308 28.0376 118.415 28.5745 118.415 29.2242V34.0764H117.242V29.3037C117.242 28.7038 117.086 28.2365 116.775 27.9017C116.463 27.5636 116.036 27.3946 115.492 27.3946C115.118 27.3946 114.783 27.4758 114.488 27.6382C114.196 27.8006 113.966 28.0376 113.797 28.3492C113.628 28.6607 113.543 29.0386 113.543 29.4827ZM126.227 34.0764L123.9 26.4401H125.133L126.784 32.2867H126.863L128.494 26.4401H129.747L131.358 32.2668H131.437L133.088 26.4401H134.321L131.994 34.0764H130.841L129.17 28.21H129.051L127.38 34.0764H126.227ZM135.872 34.0764V26.4401H137.045V34.0764H135.872ZM136.469 25.1673C136.24 25.1673 136.043 25.0895 135.877 24.9337C135.714 24.7779 135.633 24.5906 135.633 24.3719C135.633 24.1531 135.714 23.9659 135.877 23.8101C136.043 23.6543 136.24 23.5764 136.469 23.5764C136.697 23.5764 136.893 23.6543 137.055 23.8101C137.221 23.9659 137.304 24.1531 137.304 24.3719C137.304 24.5906 137.221 24.7779 137.055 24.9337C136.893 25.0895 136.697 25.1673 136.469 25.1673ZM142.515 26.4401V27.4344H138.558V26.4401H142.515ZM139.711 24.6105H140.885V31.8889C140.885 32.2204 140.933 32.469 141.029 32.6347C141.128 32.7971 141.254 32.9065 141.407 32.9628C141.562 33.0158 141.726 33.0423 141.899 33.0423C142.028 33.0423 142.134 33.0357 142.217 33.0225C142.3 33.0059 142.366 32.9926 142.416 32.9827L142.654 34.0367C142.575 34.0665 142.464 34.0963 142.321 34.1261C142.179 34.1593 141.998 34.1759 141.779 34.1759C141.448 34.1759 141.123 34.1046 140.805 33.9621C140.49 33.8196 140.228 33.6025 140.019 33.3108C139.814 33.0191 139.711 32.6512 139.711 32.2071V24.6105ZM145.617 29.4827V34.0764H144.444V23.8946H145.617V27.6332H145.717C145.896 27.2388 146.164 26.9256 146.522 26.6936C146.884 26.4583 147.364 26.3406 147.964 26.3406C148.484 26.3406 148.94 26.445 149.331 26.6538C149.722 26.8593 150.026 27.1759 150.241 27.6034C150.46 28.0277 150.569 28.5679 150.569 29.2242V34.0764H149.396V29.3037C149.396 28.6972 149.238 28.2282 148.924 27.8967C148.612 27.562 148.18 27.3946 147.626 27.3946C147.242 27.3946 146.897 27.4758 146.592 27.6382C146.29 27.8006 146.052 28.0376 145.876 28.3492C145.704 28.6607 145.617 29.0386 145.617 29.4827ZM163.772 27.0764C163.663 26.7417 163.519 26.4417 163.34 26.1766C163.164 25.9081 162.954 25.6794 162.709 25.4905C162.467 25.3016 162.192 25.1574 161.883 25.058C161.575 24.9585 161.237 24.9088 160.869 24.9088C160.266 24.9088 159.717 25.0646 159.223 25.3761C158.73 25.6877 158.337 26.1467 158.045 26.7533C157.754 27.3598 157.608 28.1039 157.608 28.9855C157.608 29.8672 157.755 30.6112 158.05 31.2178C158.345 31.8243 158.745 32.2833 159.248 32.5949C159.752 32.9065 160.319 33.0622 160.949 33.0622C161.532 33.0622 162.046 32.9379 162.49 32.6894C162.937 32.4375 163.285 32.0828 163.534 31.6254C163.786 31.1647 163.912 30.6228 163.912 29.9997L164.29 30.0793H161.227V28.9855H165.105V30.0793C165.105 30.9178 164.926 31.647 164.568 32.2668C164.213 32.8866 163.723 33.3672 163.096 33.7085C162.473 34.0466 161.757 34.2156 160.949 34.2156C160.047 34.2156 159.255 34.0035 158.572 33.5793C157.893 33.155 157.362 32.5518 156.981 31.7696C156.603 30.9874 156.415 30.0594 156.415 28.9855C156.415 28.1801 156.522 27.4559 156.738 26.8129C156.956 26.1666 157.265 25.6164 157.662 25.1624C158.06 24.7083 158.531 24.3603 159.074 24.1183C159.618 23.8764 160.216 23.7554 160.869 23.7554C161.406 23.7554 161.906 23.8366 162.371 23.999C162.838 24.1581 163.254 24.3851 163.618 24.6801C163.986 24.9718 164.293 25.3215 164.538 25.7291C164.783 26.1335 164.952 26.5826 165.045 27.0764H163.772ZM170.16 34.2355C169.47 34.2355 168.865 34.0715 168.345 33.7433C167.828 33.4152 167.424 32.9562 167.132 32.3662C166.844 31.7762 166.7 31.0868 166.7 30.298C166.7 29.5026 166.844 28.8082 167.132 28.2149C167.424 27.6216 167.828 27.1609 168.345 26.8328C168.865 26.5047 169.47 26.3406 170.16 26.3406C170.849 26.3406 171.452 26.5047 171.969 26.8328C172.49 27.1609 172.894 27.6216 173.182 28.2149C173.474 28.8082 173.62 29.5026 173.62 30.298C173.62 31.0868 173.474 31.7762 173.182 32.3662C172.894 32.9562 172.49 33.4152 171.969 33.7433C171.452 34.0715 170.849 34.2355 170.16 34.2355ZM170.16 33.1815C170.683 33.1815 171.114 33.0473 171.452 32.7788C171.79 32.5104 172.041 32.1574 172.203 31.7199C172.365 31.2824 172.447 30.8084 172.447 30.298C172.447 29.7876 172.365 29.312 172.203 28.8712C172.041 28.4304 171.79 28.0741 171.452 27.8023C171.114 27.5305 170.683 27.3946 170.16 27.3946C169.636 27.3946 169.205 27.5305 168.867 27.8023C168.529 28.0741 168.279 28.4304 168.116 28.8712C167.954 29.312 167.873 29.7876 167.873 30.298C167.873 30.8084 167.954 31.2824 168.116 31.7199C168.279 32.1574 168.529 32.5104 168.867 32.7788C169.205 33.0473 169.636 33.1815 170.16 33.1815ZM178.513 34.2355C177.824 34.2355 177.219 34.0715 176.699 33.7433C176.182 33.4152 175.777 32.9562 175.486 32.3662C175.197 31.7762 175.053 31.0868 175.053 30.298C175.053 29.5026 175.197 28.8082 175.486 28.2149C175.777 27.6216 176.182 27.1609 176.699 26.8328C177.219 26.5047 177.824 26.3406 178.513 26.3406C179.203 26.3406 179.806 26.5047 180.323 26.8328C180.843 27.1609 181.248 27.6216 181.536 28.2149C181.828 28.8082 181.973 29.5026 181.973 30.298C181.973 31.0868 181.828 31.7762 181.536 32.3662C181.248 32.9562 180.843 33.4152 180.323 33.7433C179.806 34.0715 179.203 34.2355 178.513 34.2355ZM178.513 33.1815C179.037 33.1815 179.468 33.0473 179.806 32.7788C180.144 32.5104 180.394 32.1574 180.557 31.7199C180.719 31.2824 180.8 30.8084 180.8 30.298C180.8 29.7876 180.719 29.312 180.557 28.8712C180.394 28.4304 180.144 28.0741 179.806 27.8023C179.468 27.5305 179.037 27.3946 178.513 27.3946C177.99 27.3946 177.559 27.5305 177.221 27.8023C176.883 28.0741 176.632 28.4304 176.47 28.8712C176.308 29.312 176.226 29.7876 176.226 30.298C176.226 30.8084 176.308 31.2824 176.47 31.7199C176.632 32.1574 176.883 32.5104 177.221 32.7788C177.559 33.0473 177.99 33.1815 178.513 33.1815ZM186.847 37.0992C186.28 37.0992 185.793 37.0262 185.385 36.8804C184.978 36.7379 184.638 36.549 184.366 36.3136C184.098 36.0816 183.884 35.8331 183.725 35.5679L184.659 34.9117C184.765 35.0509 184.9 35.21 185.062 35.3889C185.224 35.5712 185.447 35.7287 185.728 35.8612C186.013 35.9971 186.386 36.0651 186.847 36.0651C187.463 36.0651 187.972 35.9159 188.373 35.6176C188.774 35.3193 188.975 34.852 188.975 34.2156V32.6645H188.875C188.789 32.8037 188.666 32.9761 188.507 33.1815C188.352 33.3837 188.126 33.5644 187.831 33.7234C187.54 33.8792 187.145 33.9571 186.648 33.9571C186.032 33.9571 185.478 33.8113 184.988 33.5196C184.5 33.2279 184.114 32.8037 183.829 32.2469C183.547 31.6901 183.407 31.0139 183.407 30.2185C183.407 29.4363 183.544 28.7552 183.819 28.1752C184.094 27.5918 184.477 27.1411 184.968 26.8229C185.458 26.5014 186.025 26.3406 186.668 26.3406C187.165 26.3406 187.559 26.4235 187.851 26.5892C188.146 26.7516 188.372 26.9372 188.527 27.146C188.686 27.3515 188.809 27.5206 188.895 27.6531H189.015V26.4401H190.148V34.2952C190.148 34.9514 189.999 35.485 189.701 35.896C189.406 36.3103 189.008 36.6136 188.507 36.8058C188.01 37.0014 187.457 37.0992 186.847 37.0992ZM186.807 32.9031C187.278 32.9031 187.675 32.7954 188 32.58C188.325 32.3645 188.572 32.0547 188.741 31.6503C188.91 31.2459 188.995 30.762 188.995 30.1986C188.995 29.6484 188.912 29.1628 188.746 28.7419C188.58 28.321 188.335 27.9912 188.01 27.7526C187.685 27.5139 187.284 27.3946 186.807 27.3946C186.31 27.3946 185.896 27.5206 185.564 27.7725C185.236 28.0243 184.989 28.3624 184.823 28.7867C184.661 29.2109 184.58 29.6815 184.58 30.1986C184.58 30.7289 184.663 31.1979 184.828 31.6056C184.997 32.0099 185.246 32.3281 185.574 32.5601C185.906 32.7888 186.317 32.9031 186.807 32.9031ZM193.469 23.8946V34.0764H192.296V23.8946H193.469ZM198.82 34.2355C198.084 34.2355 197.449 34.0731 196.916 33.7483C196.385 33.4202 195.976 32.9628 195.688 32.3761C195.403 31.7862 195.26 31.1001 195.26 30.3179C195.26 29.5357 195.403 28.8463 195.688 28.2497C195.976 27.6498 196.377 27.1825 196.891 26.8477C197.408 26.5097 198.011 26.3406 198.7 26.3406C199.098 26.3406 199.491 26.4069 199.879 26.5395C200.266 26.6721 200.619 26.8875 200.938 27.1858C201.256 27.4808 201.509 27.8719 201.698 28.3591C201.887 28.8463 201.982 29.4462 201.982 30.1588V30.656H196.095V29.6418H200.788C200.788 29.2109 200.702 28.8264 200.53 28.4884C200.361 28.1503 200.119 27.8835 199.804 27.6879C199.493 27.4924 199.125 27.3946 198.7 27.3946C198.233 27.3946 197.829 27.5106 197.487 27.7426C197.149 27.9713 196.889 28.2696 196.707 28.6375C196.525 29.0054 196.433 29.3998 196.433 29.8207V30.4969C196.433 31.0736 196.533 31.5625 196.732 31.9635C196.934 32.3612 197.214 32.6645 197.572 32.8733C197.93 33.0788 198.346 33.1815 198.82 33.1815C199.128 33.1815 199.406 33.1385 199.655 33.0523C199.907 32.9628 200.124 32.8302 200.306 32.6546C200.489 32.4756 200.629 32.2535 200.729 31.9884L201.862 32.3065C201.743 32.691 201.543 33.0291 201.261 33.3207C200.979 33.6091 200.631 33.8345 200.217 33.9969C199.802 34.156 199.337 34.2355 198.82 34.2355Z" fill="white"/>
<g clip-path="url(#clip0_8_56)">
<path d="M48.7898 28.664C48.7898 16.8752 39.2331 7.31846 27.4443 7.31846C15.6555 7.31846 6.09875 16.8752 6.09875 28.664C6.09875 39.3182 13.9045 48.1489 24.109 49.7502V34.8342H18.6893V28.664H24.109V23.9613C24.109 18.6116 27.2958 15.6566 32.1716 15.6566C34.5069 15.6566 36.9497 16.0735 36.9497 16.0735V21.3265H34.2581C31.6065 21.3265 30.7795 22.9719 30.7795 24.6599V28.664H36.6996L35.7532 34.8342H30.7795V49.7502C40.9841 48.1489 48.7898 39.3182 48.7898 28.664Z" fill="white"/>
</g>
<defs>
<clipPath id="clip0_8_56">
<rect width="42.6911" height="42.6911" fill="white" transform="translate(6.09875 7.31847)"/>
</clipPath>
</defs>
</svg>
