<svg width="248" height="59" viewBox="0 0 248 59" fill="none" xmlns="http://www.w3.org/2000/svg">
<rect x="0.5" y="0.585938" width="246.043" height="57.5477" rx="19.5" fill="white" stroke="black"/>
<path d="M45.8417 29.0161C45.8417 27.6287 45.7172 26.2946 45.4859 25.0139H27.0576V32.5826H37.5881C37.1345 35.0285 35.7559 37.1008 33.6836 38.4882V43.3977H40.0072C43.7071 39.9913 45.8417 34.9751 45.8417 29.0161Z" fill="#4285F4"/>
<path d="M27.0576 48.1382C32.3406 48.1382 36.7698 46.3861 40.0072 43.3977L33.6836 38.4882C31.9315 39.6622 29.6902 40.356 27.0576 40.356C21.9613 40.356 17.6477 36.914 16.1091 32.2891H9.57202V37.3587C12.7916 43.7535 19.4088 48.1382 27.0576 48.1382Z" fill="#34A853"/>
<path d="M16.1091 32.2891C15.7178 31.1151 15.4954 29.8611 15.4954 28.5715C15.4954 27.2818 15.7178 26.0278 16.1091 24.8538V19.7842H9.57204C8.20236 22.5108 7.48964 25.5201 7.49085 28.5715C7.49085 31.7288 8.24683 34.7172 9.57204 37.3587L16.1091 32.2891Z" fill="#FBBC05"/>
<path d="M27.0576 16.787C29.9303 16.787 32.5096 17.7742 34.5374 19.7131L40.1495 14.101C36.7609 10.9436 32.3317 9.00473 27.0576 9.00473C19.4088 9.00473 12.7916 13.3895 9.57202 19.7842L16.1091 24.8538C17.6477 20.2289 21.9613 16.787 27.0576 16.787Z" fill="#EA4335"/>
<path d="M84.3888 26.526C84.3291 26.0222 84.0872 25.6311 83.6629 25.3527C83.2387 25.0743 82.7183 24.9351 82.1019 24.9351C81.6511 24.9351 81.2567 25.008 80.9186 25.1538C80.5839 25.2997 80.322 25.5002 80.1331 25.7554C79.9475 26.0106 79.8547 26.3006 79.8547 26.6254C79.8547 26.8972 79.9193 27.1309 80.0486 27.3264C80.1812 27.5187 80.3502 27.6794 80.5557 27.8087C80.7612 27.9346 80.9766 28.039 81.202 28.1219C81.4274 28.2014 81.6345 28.266 81.8234 28.3158L82.8575 28.5942C83.1227 28.6638 83.4177 28.7599 83.7425 28.8825C84.0706 29.0052 84.3838 29.1725 84.6821 29.3847C84.9837 29.5935 85.2323 29.8619 85.4278 30.1901C85.6234 30.5182 85.7212 30.9209 85.7212 31.3981C85.7212 31.9483 85.577 32.4455 85.2886 32.8896C85.0036 33.3338 84.586 33.6867 84.0358 33.9486C83.4889 34.2104 82.8244 34.3413 82.0422 34.3413C81.313 34.3413 80.6816 34.2237 80.148 33.9883C79.6177 33.753 79.2001 33.4249 78.8952 33.004C78.5936 32.583 78.4229 32.0942 78.3831 31.5374H79.6558C79.689 31.9218 79.8182 32.24 80.0436 32.4919C80.2723 32.7405 80.5607 32.9261 80.9087 33.0487C81.26 33.168 81.6378 33.2277 82.0422 33.2277C82.5128 33.2277 82.9354 33.1515 83.3099 32.999C83.6845 32.8432 83.9811 32.6278 84.1999 32.3527C84.4186 32.0743 84.528 31.7495 84.528 31.3783C84.528 31.0402 84.4335 30.7651 84.2446 30.553C84.0557 30.3409 83.8071 30.1685 83.4989 30.0359C83.1906 29.9034 82.8575 29.7874 82.4996 29.6879L81.2467 29.33C80.4513 29.1013 79.8215 28.7748 79.3575 28.3506C78.8935 27.9263 78.6615 27.3712 78.6615 26.6851C78.6615 26.115 78.8156 25.6178 79.1239 25.1936C79.4354 24.766 79.853 24.4346 80.3767 24.1993C80.9037 23.9606 81.492 23.8413 82.1416 23.8413C82.7979 23.8413 83.3812 23.959 83.8916 24.1943C84.402 24.4263 84.8064 24.7445 85.1047 25.1489C85.4063 25.5532 85.5654 26.0123 85.582 26.526H84.3888ZM87.5892 34.1624V26.526H88.7625V34.1624H87.5892ZM88.1858 25.2533C87.9571 25.2533 87.7599 25.1754 87.5942 25.0196C87.4318 24.8638 87.3506 24.6766 87.3506 24.4578C87.3506 24.2391 87.4318 24.0518 87.5942 23.896C87.7599 23.7402 87.9571 23.6624 88.1858 23.6624C88.4145 23.6624 88.6101 23.7402 88.7725 23.896C88.9382 24.0518 89.0211 24.2391 89.0211 24.4578C89.0211 24.6766 88.9382 24.8638 88.7725 25.0196C88.6101 25.1754 88.4145 25.2533 88.1858 25.2533ZM93.9939 37.1851C93.4271 37.1851 92.9399 37.1122 92.5322 36.9663C92.1246 36.8238 91.7849 36.6349 91.5131 36.3996C91.2446 36.1676 91.0308 35.919 90.8717 35.6538L91.8064 34.9976C91.9125 35.1368 92.0467 35.2959 92.2091 35.4749C92.3715 35.6571 92.5936 35.8146 92.8753 35.9472C93.1603 36.083 93.5332 36.151 93.9939 36.151C94.6104 36.151 95.1191 36.0018 95.5202 35.7035C95.9212 35.4053 96.1217 34.9379 96.1217 34.3016V32.7504H96.0223C95.9361 32.8896 95.8135 33.062 95.6544 33.2675C95.4986 33.4696 95.2733 33.6503 94.9783 33.8094C94.6866 33.9651 94.2922 34.043 93.795 34.043C93.1786 34.043 92.6251 33.8972 92.1345 33.6055C91.6473 33.3139 91.2612 32.8896 90.9761 32.3328C90.6944 31.776 90.5536 31.0999 90.5536 30.3044C90.5536 29.5222 90.6911 28.8411 90.9662 28.2611C91.2413 27.6777 91.6241 27.227 92.1146 26.9088C92.6052 26.5873 93.1719 26.4266 93.8149 26.4266C94.3121 26.4266 94.7065 26.5094 94.9982 26.6751C95.2931 26.8375 95.5185 27.0231 95.6743 27.232C95.8334 27.4374 95.956 27.6065 96.0422 27.7391H96.1615V26.526H97.295V34.3811C97.295 35.0374 97.1459 35.571 96.8476 35.982C96.5526 36.3963 96.1549 36.6995 95.6544 36.8918C95.1572 37.0873 94.6037 37.1851 93.9939 37.1851ZM93.9541 32.9891C94.4248 32.9891 94.8225 32.8813 95.1473 32.6659C95.4721 32.4505 95.719 32.1406 95.8881 31.7362C96.0571 31.3319 96.1416 30.848 96.1416 30.2845C96.1416 29.7343 96.0588 29.2488 95.893 28.8278C95.7273 28.4069 95.4821 28.0771 95.1572 27.8385C94.8324 27.5999 94.4314 27.4805 93.9541 27.4805C93.457 27.4805 93.0427 27.6065 92.7112 27.8584C92.3831 28.1103 92.1362 28.4483 91.9705 28.8726C91.8081 29.2968 91.7269 29.7675 91.7269 30.2845C91.7269 30.8148 91.8097 31.2838 91.9754 31.6915C92.1445 32.0958 92.393 32.414 92.7212 32.646C93.0526 32.8747 93.4636 32.9891 93.9541 32.9891ZM100.616 29.5686V34.1624H99.4428V26.526H100.576V27.7192H100.676C100.855 27.3314 101.126 27.0198 101.491 26.7845C101.856 26.5459 102.326 26.4266 102.903 26.4266C103.42 26.4266 103.872 26.5326 104.26 26.7447C104.648 26.9535 104.95 27.2717 105.165 27.6993C105.38 28.1235 105.488 28.6605 105.488 29.3101V34.1624H104.315V29.3896C104.315 28.7897 104.159 28.3224 103.848 27.9876C103.536 27.6496 103.108 27.4805 102.565 27.4805C102.19 27.4805 101.856 27.5617 101.561 27.7241C101.269 27.8865 101.039 28.1235 100.87 28.4351C100.701 28.7466 100.616 29.1245 100.616 29.5686ZM111.57 34.1624V26.526H112.743V34.1624H111.57ZM112.166 25.2533C111.938 25.2533 111.74 25.1754 111.575 25.0196C111.412 24.8638 111.331 24.6766 111.331 24.4578C111.331 24.2391 111.412 24.0518 111.575 23.896C111.74 23.7402 111.938 23.6624 112.166 23.6624C112.395 23.6624 112.591 23.7402 112.753 23.896C112.919 24.0518 113.002 24.2391 113.002 24.4578C113.002 24.6766 112.919 24.8638 112.753 25.0196C112.591 25.1754 112.395 25.2533 112.166 25.2533ZM116.065 29.5686V34.1624H114.892V26.526H116.026V27.7192H116.125C116.304 27.3314 116.576 27.0198 116.94 26.7845C117.305 26.5459 117.776 26.4266 118.352 26.4266C118.869 26.4266 119.322 26.5326 119.709 26.7447C120.097 26.9535 120.399 27.2717 120.614 27.6993C120.83 28.1235 120.937 28.6605 120.937 29.3101V34.1624H119.764V29.3896C119.764 28.7897 119.608 28.3224 119.297 27.9876C118.985 27.6496 118.558 27.4805 118.014 27.4805C117.64 27.4805 117.305 27.5617 117.01 27.7241C116.718 27.8865 116.488 28.1235 116.319 28.4351C116.15 28.7466 116.065 29.1245 116.065 29.5686ZM128.749 34.1624L126.422 26.526H127.655L129.306 32.3726H129.385L131.016 26.526H132.269L133.88 32.3527H133.959L135.61 26.526H136.843L134.516 34.1624H133.363L131.692 28.2959H131.573L129.902 34.1624H128.749ZM138.394 34.1624V26.526H139.567V34.1624H138.394ZM138.991 25.2533C138.762 25.2533 138.565 25.1754 138.399 25.0196C138.236 24.8638 138.155 24.6766 138.155 24.4578C138.155 24.2391 138.236 24.0518 138.399 23.896C138.565 23.7402 138.762 23.6624 138.991 23.6624C139.219 23.6624 139.415 23.7402 139.577 23.896C139.743 24.0518 139.826 24.2391 139.826 24.4578C139.826 24.6766 139.743 24.8638 139.577 25.0196C139.415 25.1754 139.219 25.2533 138.991 25.2533ZM145.037 26.526V27.5203H141.08V26.526H145.037ZM142.233 24.6964H143.407V31.9749C143.407 32.3063 143.455 32.5549 143.551 32.7206C143.65 32.883 143.776 32.9924 143.929 33.0487C144.084 33.1017 144.248 33.1283 144.421 33.1283C144.55 33.1283 144.656 33.1216 144.739 33.1084C144.822 33.0918 144.888 33.0785 144.938 33.0686L145.176 34.1226C145.097 34.1524 144.986 34.1822 144.843 34.2121C144.701 34.2452 144.52 34.2618 144.301 34.2618C143.97 34.2618 143.645 34.1905 143.327 34.048C143.012 33.9055 142.75 33.6884 142.541 33.3967C142.336 33.1051 142.233 32.7372 142.233 32.293V24.6964ZM148.139 29.5686V34.1624H146.966V23.9805H148.139V27.7192H148.239C148.418 27.3248 148.686 27.0115 149.044 26.7795C149.406 26.5442 149.886 26.4266 150.486 26.4266C151.006 26.4266 151.462 26.531 151.853 26.7398C152.244 26.9453 152.548 27.2618 152.763 27.6893C152.982 28.1136 153.091 28.6538 153.091 29.3101V34.1624H151.918V29.3896C151.918 28.7831 151.76 28.3141 151.446 27.9827C151.134 27.6479 150.702 27.4805 150.148 27.4805C149.764 27.4805 149.419 27.5617 149.114 27.7241C148.812 27.8865 148.574 28.1235 148.398 28.4351C148.226 28.7466 148.139 29.1245 148.139 29.5686ZM166.295 27.1624C166.185 26.8276 166.041 26.5276 165.862 26.2625C165.686 25.994 165.476 25.7653 165.231 25.5764C164.989 25.3875 164.714 25.2433 164.405 25.1439C164.097 25.0445 163.759 24.9947 163.391 24.9947C162.788 24.9947 162.239 25.1505 161.745 25.4621C161.252 25.7736 160.859 26.2327 160.567 26.8392C160.276 27.4457 160.13 28.1898 160.13 29.0714C160.13 29.9531 160.277 30.6972 160.572 31.3037C160.867 31.9102 161.267 32.3693 161.77 32.6808C162.274 32.9924 162.841 33.1481 163.471 33.1481C164.054 33.1481 164.568 33.0239 165.012 32.7753C165.459 32.5234 165.807 32.1687 166.056 31.7114C166.308 31.2507 166.434 30.7088 166.434 30.0856L166.812 30.1652H163.749V29.0714H167.627V30.1652C167.627 31.0037 167.448 31.7329 167.09 32.3527C166.735 32.9725 166.245 33.4531 165.618 33.7945C164.995 34.1325 164.279 34.3016 163.471 34.3016C162.569 34.3016 161.777 34.0894 161.094 33.6652C160.415 33.241 159.884 32.6377 159.503 31.8555C159.125 31.0733 158.937 30.1453 158.937 29.0714C158.937 28.266 159.044 27.5419 159.26 26.8989C159.478 26.2526 159.787 25.7024 160.184 25.2483C160.582 24.7942 161.053 24.4462 161.596 24.2043C162.14 23.9623 162.738 23.8413 163.391 23.8413C163.928 23.8413 164.428 23.9225 164.893 24.0849C165.36 24.244 165.776 24.4711 166.14 24.766C166.508 25.0577 166.815 25.4074 167.06 25.8151C167.305 26.2194 167.474 26.6685 167.567 27.1624H166.295ZM172.682 34.3214C171.992 34.3214 171.387 34.1574 170.867 33.8293C170.35 33.5011 169.946 33.0421 169.654 32.4521C169.366 31.8622 169.222 31.1728 169.222 30.3839C169.222 29.5885 169.366 28.8941 169.654 28.3008C169.946 27.7076 170.35 27.2469 170.867 26.9187C171.387 26.5906 171.992 26.4266 172.682 26.4266C173.371 26.4266 173.974 26.5906 174.491 26.9187C175.012 27.2469 175.416 27.7076 175.704 28.3008C175.996 28.8941 176.142 29.5885 176.142 30.3839C176.142 31.1728 175.996 31.8622 175.704 32.4521C175.416 33.0421 175.012 33.5011 174.491 33.8293C173.974 34.1574 173.371 34.3214 172.682 34.3214ZM172.682 33.2675C173.205 33.2675 173.636 33.1332 173.974 32.8648C174.312 32.5963 174.563 32.2433 174.725 31.8058C174.887 31.3683 174.969 30.8944 174.969 30.3839C174.969 29.8735 174.887 29.3979 174.725 28.9571C174.563 28.5163 174.312 28.16 173.974 27.8882C173.636 27.6164 173.205 27.4805 172.682 27.4805C172.158 27.4805 171.727 27.6164 171.389 27.8882C171.051 28.16 170.801 28.5163 170.638 28.9571C170.476 29.3979 170.395 29.8735 170.395 30.3839C170.395 30.8944 170.476 31.3683 170.638 31.8058C170.801 32.2433 171.051 32.5963 171.389 32.8648C171.727 33.1332 172.158 33.2675 172.682 33.2675ZM181.035 34.3214C180.346 34.3214 179.741 34.1574 179.221 33.8293C178.704 33.5011 178.299 33.0421 178.008 32.4521C177.719 31.8622 177.575 31.1728 177.575 30.3839C177.575 29.5885 177.719 28.8941 178.008 28.3008C178.299 27.7076 178.704 27.2469 179.221 26.9187C179.741 26.5906 180.346 26.4266 181.035 26.4266C181.725 26.4266 182.328 26.5906 182.845 26.9187C183.365 27.2469 183.77 27.7076 184.058 28.3008C184.35 28.8941 184.495 29.5885 184.495 30.3839C184.495 31.1728 184.35 31.8622 184.058 32.4521C183.77 33.0421 183.365 33.5011 182.845 33.8293C182.328 34.1574 181.725 34.3214 181.035 34.3214ZM181.035 33.2675C181.559 33.2675 181.99 33.1332 182.328 32.8648C182.666 32.5963 182.916 32.2433 183.079 31.8058C183.241 31.3683 183.322 30.8944 183.322 30.3839C183.322 29.8735 183.241 29.3979 183.079 28.9571C182.916 28.5163 182.666 28.16 182.328 27.8882C181.99 27.6164 181.559 27.4805 181.035 27.4805C180.512 27.4805 180.081 27.6164 179.743 27.8882C179.405 28.16 179.154 28.5163 178.992 28.9571C178.83 29.3979 178.748 29.8735 178.748 30.3839C178.748 30.8944 178.83 31.3683 178.992 31.8058C179.154 32.2433 179.405 32.5963 179.743 32.8648C180.081 33.1332 180.512 33.2675 181.035 33.2675ZM189.369 37.1851C188.802 37.1851 188.315 37.1122 187.907 36.9663C187.5 36.8238 187.16 36.6349 186.888 36.3996C186.62 36.1676 186.406 35.919 186.247 35.6538L187.181 34.9976C187.287 35.1368 187.422 35.2959 187.584 35.4749C187.747 35.6571 187.969 35.8146 188.25 35.9472C188.535 36.083 188.908 36.151 189.369 36.151C189.985 36.151 190.494 36.0018 190.895 35.7035C191.296 35.4053 191.497 34.9379 191.497 34.3016V32.7504H191.397C191.311 32.8896 191.188 33.062 191.029 33.2675C190.874 33.4696 190.648 33.6503 190.353 33.8094C190.062 33.9651 189.667 34.043 189.17 34.043C188.554 34.043 188 33.8972 187.51 33.6055C187.022 33.3139 186.636 32.8896 186.351 32.3328C186.069 31.776 185.929 31.0999 185.929 30.3044C185.929 29.5222 186.066 28.8411 186.341 28.2611C186.616 27.6777 186.999 27.227 187.49 26.9088C187.98 26.5873 188.547 26.4266 189.19 26.4266C189.687 26.4266 190.081 26.5094 190.373 26.6751C190.668 26.8375 190.894 27.0231 191.049 27.232C191.208 27.4374 191.331 27.6065 191.417 27.7391H191.537V26.526H192.67V34.3811C192.67 35.0374 192.521 35.571 192.223 35.982C191.928 36.3963 191.53 36.6995 191.029 36.8918C190.532 37.0873 189.979 37.1851 189.369 37.1851ZM189.329 32.9891C189.8 32.9891 190.197 32.8813 190.522 32.6659C190.847 32.4505 191.094 32.1406 191.263 31.7362C191.432 31.3319 191.517 30.848 191.517 30.2845C191.517 29.7343 191.434 29.2488 191.268 28.8278C191.102 28.4069 190.857 28.0771 190.532 27.8385C190.207 27.5999 189.806 27.4805 189.329 27.4805C188.832 27.4805 188.418 27.6065 188.086 27.8584C187.758 28.1103 187.511 28.4483 187.345 28.8726C187.183 29.2968 187.102 29.7675 187.102 30.2845C187.102 30.8148 187.185 31.2838 187.35 31.6915C187.519 32.0958 187.768 32.414 188.096 32.646C188.428 32.8747 188.839 32.9891 189.329 32.9891ZM195.991 23.9805V34.1624H194.818V23.9805H195.991ZM201.342 34.3214C200.606 34.3214 199.971 34.159 199.438 33.8342C198.907 33.5061 198.498 33.0487 198.21 32.4621C197.925 31.8721 197.782 31.186 197.782 30.4038C197.782 29.6216 197.925 28.9322 198.21 28.3356C198.498 27.7357 198.899 27.2684 199.413 26.9337C199.93 26.5956 200.533 26.4266 201.222 26.4266C201.62 26.4266 202.013 26.4928 202.401 26.6254C202.788 26.758 203.141 26.9734 203.46 27.2717C203.778 27.5667 204.031 27.9578 204.22 28.445C204.409 28.9322 204.504 29.5321 204.504 30.2447V30.7419H198.617V29.7277H203.31C203.31 29.2968 203.224 28.9124 203.052 28.5743C202.883 28.2362 202.641 27.9694 202.326 27.7739C202.015 27.5783 201.647 27.4805 201.222 27.4805C200.755 27.4805 200.351 27.5965 200.009 27.8285C199.671 28.0572 199.411 28.3555 199.229 28.7234C199.047 29.0913 198.955 29.4857 198.955 29.9067V30.5828C198.955 31.1595 199.055 31.6484 199.254 32.0494C199.456 32.4472 199.736 32.7504 200.094 32.9592C200.452 33.1647 200.868 33.2675 201.342 33.2675C201.65 33.2675 201.928 33.2244 202.177 33.1382C202.429 33.0487 202.646 32.9161 202.828 32.7405C203.011 32.5615 203.151 32.3394 203.251 32.0743L204.384 32.3925C204.265 32.7769 204.065 33.115 203.783 33.4067C203.501 33.695 203.153 33.9204 202.739 34.0828C202.324 34.2419 201.859 34.3214 201.342 34.3214Z" fill="black"/>
</svg>
